<svg width="409" height="247" viewBox="0 0 409 247" fill="none" xmlns="http://www.w3.org/2000/svg">
<path d="M18.8722 15.2488H13.6648C13.6278 14.8179 13.5294 14.427 13.3693 14.0762C13.2154 13.7253 13 13.4237 12.723 13.1714C12.4522 12.9128 12.1229 12.7159 11.7351 12.5804C11.3473 12.4389 10.9072 12.3681 10.4148 12.3681C9.55303 12.3681 8.82363 12.5774 8.22656 12.9959C7.63565 13.4145 7.18632 14.0146 6.87855 14.7964C6.57694 15.5781 6.42614 16.5168 6.42614 17.6124C6.42614 18.7696 6.58002 19.7391 6.88778 20.5208C7.2017 21.2964 7.65412 21.8811 8.24503 22.2751C8.83594 22.6628 9.54688 22.8567 10.3778 22.8567C10.8518 22.8567 11.2765 22.7983 11.652 22.6813C12.0275 22.5582 12.3537 22.3828 12.6307 22.155C12.9077 21.9273 13.1323 21.6534 13.3047 21.3333C13.4832 21.0071 13.6032 20.6408 13.6648 20.2346L18.8722 20.2715C18.8106 21.0717 18.5859 21.8873 18.1982 22.7182C17.8104 23.543 17.2595 24.3063 16.5455 25.008C15.8376 25.7036 14.9605 26.2637 13.9141 26.6884C12.8677 27.1131 11.652 27.3255 10.267 27.3255C8.53125 27.3255 6.97396 26.9531 5.59517 26.2083C4.22254 25.4635 3.13613 24.3679 2.33594 22.9214C1.5419 21.4749 1.14489 19.7052 1.14489 17.6124C1.14489 15.5073 1.55114 13.7346 2.36364 12.2942C3.17614 10.8477 4.27178 9.75516 5.65057 9.01653C7.02936 8.27174 8.56818 7.89934 10.267 7.89934C11.4612 7.89934 12.5599 8.06246 13.5632 8.38869C14.5665 8.71492 15.4467 9.19196 16.2038 9.8198C16.9609 10.4415 17.5703 11.2078 18.032 12.1188C18.4936 13.0298 18.7737 14.0731 18.8722 15.2488ZM26.3347 8.15786V27.067H21.2012V8.15786H26.3347ZM28.7676 27.067V8.15786H42.3954V12.2942H33.9011V15.5442H41.6937V19.6806H33.9011V22.9306H42.3585V27.067H28.7676Z" fill="#073567"/>
<path d="M107.409 8.15786H112.543V20.2715C112.543 21.7118 112.198 22.9583 111.509 24.0108C110.825 25.0572 109.871 25.8667 108.646 26.4391C107.421 27.0054 106 27.2885 104.381 27.2885C102.75 27.2885 101.321 27.0054 100.097 26.4391C98.8717 25.8667 97.9176 25.0572 97.2344 24.0108C96.5573 22.9583 96.2188 21.7118 96.2188 20.2715V8.15786H101.352V19.8283C101.352 20.4131 101.482 20.9363 101.74 21.3979C101.999 21.8534 102.356 22.2104 102.811 22.4689C103.273 22.7275 103.796 22.8567 104.381 22.8567C104.972 22.8567 105.495 22.7275 105.95 22.4689C106.406 22.2104 106.763 21.8534 107.021 21.3979C107.28 20.9363 107.409 20.4131 107.409 19.8283V8.15786ZM120.116 8.15786V27.067H114.982V8.15786H120.116ZM122.549 27.067V8.15786H130.711C132.114 8.15786 133.342 8.41331 134.395 8.9242C135.447 9.43509 136.266 10.1706 136.851 11.1309C137.435 12.0911 137.728 13.2421 137.728 14.584C137.728 15.9382 137.426 17.08 136.823 18.0094C136.226 18.9389 135.386 19.6406 134.302 20.1145C133.225 20.5885 131.966 20.8255 130.526 20.8255H125.651V16.8368H129.492C130.095 16.8368 130.609 16.763 131.034 16.6153C131.465 16.4614 131.794 16.2182 132.022 15.8858C132.256 15.5535 132.373 15.1195 132.373 14.584C132.373 14.0423 132.256 13.6022 132.022 13.2637C131.794 12.919 131.465 12.6666 131.034 12.5066C130.609 12.3404 130.095 12.2573 129.492 12.2573H127.682V27.067H122.549ZM133.628 18.388L138.356 27.067H132.779L128.162 18.388H133.628ZM150.229 8.15786V27.067H145.096V8.15786H150.229ZM157.833 19.0897V27.067H152.736V12.8851H157.574V15.5812H157.722C158.03 14.6825 158.571 13.9777 159.347 13.4668C160.128 12.9559 161.039 12.7005 162.08 12.7005C163.083 12.7005 163.954 12.9313 164.693 13.3929C165.437 13.8484 166.013 14.4763 166.419 15.2765C166.832 16.0767 167.035 16.9907 167.029 18.0187V27.067H161.932V19.0897C161.938 18.388 161.76 17.8371 161.396 17.437C161.039 17.0369 160.541 16.8368 159.901 16.8368C159.482 16.8368 159.116 16.9292 158.802 17.1138C158.494 17.2923 158.257 17.5509 158.091 17.8894C157.925 18.2218 157.839 18.6219 157.833 19.0897ZM174.641 19.0897V27.067H169.545V12.8851H174.383V15.5812H174.53C174.838 14.6825 175.38 13.9777 176.155 13.4668C176.937 12.9559 177.848 12.7005 178.888 12.7005C179.892 12.7005 180.763 12.9313 181.501 13.3929C182.246 13.8484 182.822 14.4763 183.228 15.2765C183.64 16.0767 183.843 16.9907 183.837 18.0187V27.067H178.741V19.0897C178.747 18.388 178.568 17.8371 178.205 17.437C177.848 17.0369 177.349 16.8368 176.709 16.8368C176.291 16.8368 175.925 16.9292 175.611 17.1138C175.303 17.2923 175.066 17.5509 174.9 17.8894C174.733 18.2218 174.647 18.6219 174.641 19.0897ZM193.186 27.3255C191.647 27.3255 190.329 27.0208 189.234 26.4114C188.138 25.7959 187.298 24.9403 186.713 23.8447C186.128 22.7429 185.836 21.4656 185.836 20.013C185.836 18.5603 186.128 17.2862 186.713 16.1905C187.298 15.0887 188.138 14.2331 189.234 13.6238C190.329 13.0082 191.647 12.7005 193.186 12.7005C194.724 12.7005 196.042 13.0082 197.137 13.6238C198.233 14.2331 199.073 15.0887 199.658 16.1905C200.243 17.2862 200.535 18.5603 200.535 20.013C200.535 21.4656 200.243 22.7429 199.658 23.8447C199.073 24.9403 198.233 25.7959 197.137 26.4114C196.042 27.0208 194.724 27.3255 193.186 27.3255ZM193.222 23.5584C193.653 23.5584 194.026 23.4138 194.34 23.1245C194.654 22.8352 194.897 22.4228 195.069 21.8873C195.241 21.3518 195.328 20.7147 195.328 19.976C195.328 19.2313 195.241 18.5942 195.069 18.0648C194.897 17.5293 194.654 17.1169 194.34 16.8276C194.026 16.5383 193.653 16.3937 193.222 16.3937C192.767 16.3937 192.376 16.5383 192.05 16.8276C191.724 17.1169 191.474 17.5293 191.302 18.0648C191.13 18.5942 191.044 19.2313 191.044 19.976C191.044 20.7147 191.13 21.3518 191.302 21.8873C191.474 22.4228 191.724 22.8352 192.05 23.1245C192.376 23.4138 192.767 23.5584 193.222 23.5584ZM216.464 12.8851L211.7 27.067H205.791L201.027 12.8851H206.382L208.672 22.2658H208.819L211.109 12.8851H216.464ZM221.51 27.2885C220.605 27.2885 219.805 27.1408 219.109 26.8454C218.42 26.5438 217.878 26.0883 217.484 25.4789C217.09 24.8695 216.893 24.0939 216.893 23.1522C216.893 22.3766 217.026 21.7149 217.29 21.1671C217.555 20.6131 217.924 20.1607 218.398 19.8099C218.872 19.459 219.423 19.1912 220.051 19.0066C220.685 18.8219 221.368 18.7019 222.101 18.6465C222.895 18.5849 223.532 18.5111 224.012 18.4249C224.498 18.3326 224.849 18.2064 225.065 18.0464C225.28 17.8802 225.388 17.6617 225.388 17.3908V17.3539C225.388 16.9846 225.246 16.7014 224.963 16.5045C224.68 16.3075 224.317 16.209 223.874 16.209C223.387 16.209 222.99 16.3167 222.683 16.5322C222.381 16.7414 222.199 17.0646 222.138 17.5016H217.447C217.509 16.6399 217.783 15.8458 218.269 15.1195C218.762 14.387 219.479 13.8023 220.42 13.3653C221.362 12.9221 222.538 12.7005 223.947 12.7005C224.963 12.7005 225.874 12.8205 226.68 13.0606C227.487 13.2945 228.173 13.6238 228.739 14.0485C229.306 14.4671 229.737 14.9595 230.032 15.5258C230.334 16.0859 230.484 16.6953 230.484 17.3539V27.067H225.72V25.0726H225.609C225.326 25.602 224.982 26.0298 224.575 26.356C224.175 26.6822 223.717 26.9192 223.2 27.067C222.689 27.2147 222.125 27.2885 221.51 27.2885ZM223.172 24.0755C223.56 24.0755 223.923 23.9955 224.261 23.8354C224.606 23.6754 224.886 23.4446 225.102 23.1429C225.317 22.8413 225.425 22.4751 225.425 22.0442V20.8624C225.289 20.9178 225.145 20.9701 224.991 21.0194C224.843 21.0686 224.683 21.1148 224.511 21.1579C224.344 21.201 224.166 21.241 223.975 21.2779C223.79 21.3148 223.597 21.3487 223.393 21.3795C223 21.441 222.676 21.5426 222.424 21.6841C222.178 21.8196 221.993 21.9888 221.87 22.192C221.753 22.3889 221.695 22.6105 221.695 22.8567C221.695 23.2507 221.833 23.5523 222.11 23.7616C222.387 23.9708 222.741 24.0755 223.172 24.0755ZM241.377 12.8851V16.5783H232.033V12.8851H241.377ZM233.843 9.48741H238.939V22.5059C238.939 22.7028 238.973 22.869 239.041 23.0045C239.109 23.1337 239.213 23.2322 239.355 23.2999C239.497 23.3615 239.678 23.3922 239.9 23.3922C240.054 23.3922 240.232 23.3738 240.435 23.3368C240.644 23.2999 240.798 23.2691 240.897 23.2445L241.635 26.8269C241.408 26.8946 241.081 26.9777 240.657 27.0762C240.238 27.1747 239.74 27.2393 239.161 27.2701C237.992 27.3316 237.01 27.2116 236.216 26.91C235.422 26.6022 234.825 26.119 234.425 25.4604C234.024 24.8018 233.831 23.977 233.843 22.986V9.48741ZM243.457 27.067V12.8851H248.553V27.067H243.457ZM246.005 11.4079C245.316 11.4079 244.725 11.1801 244.232 10.7246C243.74 10.2691 243.494 9.72131 243.494 9.08116C243.494 8.44101 243.74 7.89319 244.232 7.43769C244.725 6.9822 245.316 6.75446 246.005 6.75446C246.701 6.75446 247.291 6.9822 247.778 7.43769C248.27 7.89319 248.516 8.44101 248.516 9.08116C248.516 9.72131 248.27 10.2691 247.778 10.7246C247.291 11.1801 246.701 11.4079 246.005 11.4079ZM257.982 27.3255C256.444 27.3255 255.126 27.0208 254.031 26.4114C252.935 25.7959 252.095 24.9403 251.51 23.8447C250.925 22.7429 250.633 21.4656 250.633 20.013C250.633 18.5603 250.925 17.2862 251.51 16.1905C252.095 15.0887 252.935 14.2331 254.031 13.6238C255.126 13.0082 256.444 12.7005 257.982 12.7005C259.521 12.7005 260.838 13.0082 261.934 13.6238C263.03 14.2331 263.87 15.0887 264.455 16.1905C265.039 17.2862 265.332 18.5603 265.332 20.013C265.332 21.4656 265.039 22.7429 264.455 23.8447C263.87 24.9403 263.03 25.7959 261.934 26.4114C260.838 27.0208 259.521 27.3255 257.982 27.3255ZM258.019 23.5584C258.45 23.5584 258.823 23.4138 259.137 23.1245C259.45 22.8352 259.694 22.4228 259.866 21.8873C260.038 21.3518 260.124 20.7147 260.124 19.976C260.124 19.2313 260.038 18.5942 259.866 18.0648C259.694 17.5293 259.45 17.1169 259.137 16.8276C258.823 16.5383 258.45 16.3937 258.019 16.3937C257.564 16.3937 257.173 16.5383 256.847 16.8276C256.521 17.1169 256.271 17.5293 256.099 18.0648C255.927 18.5942 255.84 19.2313 255.84 19.976C255.84 20.7147 255.927 21.3518 256.099 21.8873C256.271 22.4228 256.521 22.8352 256.847 23.1245C257.173 23.4138 257.564 23.5584 258.019 23.5584ZM272.497 19.0897V27.067H267.4V12.8851H272.238V15.5812H272.386C272.694 14.6825 273.235 13.9777 274.011 13.4668C274.793 12.9559 275.704 12.7005 276.744 12.7005C277.747 12.7005 278.618 12.9313 279.357 13.3929C280.102 13.8484 280.677 14.4763 281.083 15.2765C281.496 16.0767 281.699 16.9907 281.693 18.0187V27.067H276.596V19.0897C276.602 18.388 276.424 17.8371 276.061 17.437C275.704 17.0369 275.205 16.8368 274.565 16.8368C274.146 16.8368 273.78 16.9292 273.466 17.1138C273.158 17.2923 272.921 17.5509 272.755 17.8894C272.589 18.2218 272.503 18.6219 272.497 19.0897ZM306.774 14.3993C306.694 14.0731 306.568 13.7869 306.395 13.5407C306.223 13.2883 306.008 13.076 305.749 12.9036C305.497 12.7251 305.201 12.5928 304.863 12.5066C304.53 12.4143 304.164 12.3681 303.764 12.3681C302.902 12.3681 302.167 12.5743 301.557 12.9867C300.954 13.3991 300.492 13.9931 300.172 14.7687C299.858 15.5442 299.702 16.4798 299.702 17.5755C299.702 18.6834 299.852 19.6313 300.154 20.4192C300.456 21.2071 300.905 21.8103 301.502 22.2289C302.099 22.6474 302.841 22.8567 303.727 22.8567C304.509 22.8567 305.158 22.7429 305.675 22.5151C306.198 22.2874 306.589 21.9642 306.848 21.5456C307.106 21.1271 307.236 20.6347 307.236 20.0684L308.122 20.1607H303.801V16.5045H312.184V19.1266C312.184 20.8501 311.818 22.3243 311.086 23.5492C310.359 24.7679 309.356 25.7036 308.076 26.356C306.802 27.0023 305.34 27.3255 303.69 27.3255C301.85 27.3255 300.234 26.9346 298.843 26.1529C297.452 25.3712 296.365 24.2571 295.584 22.8106C294.808 21.3641 294.42 19.6437 294.42 17.6493C294.42 16.0859 294.657 14.701 295.131 13.4945C295.611 12.2881 296.276 11.2694 297.126 10.4384C297.975 9.60128 298.957 8.97036 300.071 8.54565C301.185 8.11478 302.379 7.89934 303.653 7.89934C304.773 7.89934 305.814 8.05938 306.774 8.37946C307.74 8.69338 308.593 9.14271 309.331 9.72747C310.076 10.3061 310.676 10.9924 311.132 11.7864C311.587 12.5804 311.864 13.4514 311.963 14.3993H306.774ZM318.604 27.2885C317.699 27.2885 316.899 27.1408 316.203 26.8454C315.514 26.5438 314.972 26.0883 314.578 25.4789C314.184 24.8695 313.987 24.0939 313.987 23.1522C313.987 22.3766 314.12 21.7149 314.384 21.1671C314.649 20.6131 315.018 20.1607 315.492 19.8099C315.966 19.459 316.517 19.1912 317.145 19.0066C317.779 18.8219 318.462 18.7019 319.195 18.6465C319.989 18.5849 320.626 18.5111 321.106 18.4249C321.592 18.3326 321.943 18.2064 322.158 18.0464C322.374 17.8802 322.482 17.6617 322.482 17.3908V17.3539C322.482 16.9846 322.34 16.7014 322.057 16.5045C321.774 16.3075 321.411 16.209 320.967 16.209C320.481 16.209 320.084 16.3167 319.776 16.5322C319.475 16.7414 319.293 17.0646 319.232 17.5016H314.541C314.603 16.6399 314.877 15.8458 315.363 15.1195C315.855 14.387 316.572 13.8023 317.514 13.3653C318.456 12.9221 319.632 12.7005 321.041 12.7005C322.057 12.7005 322.968 12.8205 323.774 13.0606C324.58 13.2945 325.267 13.6238 325.833 14.0485C326.399 14.4671 326.83 14.9595 327.126 15.5258C327.427 16.0859 327.578 16.6953 327.578 17.3539V27.067H322.814V25.0726H322.703C322.42 25.602 322.075 26.0298 321.669 26.356C321.269 26.6822 320.81 26.9192 320.293 27.067C319.782 27.2147 319.219 27.2885 318.604 27.2885ZM320.266 24.0755C320.653 24.0755 321.017 23.9955 321.355 23.8354C321.7 23.6754 321.98 23.4446 322.195 23.1429C322.411 22.8413 322.518 22.4751 322.518 22.0442V20.8624C322.383 20.9178 322.238 20.9701 322.085 21.0194C321.937 21.0686 321.777 21.1148 321.604 21.1579C321.438 21.201 321.26 21.241 321.069 21.2779C320.884 21.3148 320.69 21.3487 320.487 21.3795C320.093 21.441 319.77 21.5426 319.518 21.6841C319.272 21.8196 319.087 21.9888 318.964 22.192C318.847 22.3889 318.788 22.6105 318.788 22.8567C318.788 23.2507 318.927 23.5523 319.204 23.7616C319.481 23.9708 319.835 24.0755 320.266 24.0755ZM338.471 12.8851V16.5783H329.127V12.8851H338.471ZM330.937 9.48741H336.033V22.5059C336.033 22.7028 336.067 22.869 336.135 23.0045C336.202 23.1337 336.307 23.2322 336.449 23.2999C336.59 23.3615 336.772 23.3922 336.993 23.3922C337.147 23.3922 337.326 23.3738 337.529 23.3368C337.738 23.2999 337.892 23.2691 337.991 23.2445L338.729 26.8269C338.501 26.8946 338.175 26.9777 337.751 27.0762C337.332 27.1747 336.833 27.2393 336.255 27.2701C335.085 27.3316 334.104 27.2116 333.309 26.91C332.515 26.6022 331.918 26.119 331.518 25.4604C331.118 24.8018 330.924 23.977 330.937 22.986V9.48741ZM347.194 27.3255C345.679 27.3255 344.374 27.0362 343.279 26.4576C342.189 25.8728 341.349 25.0357 340.758 23.9462C340.173 22.8506 339.881 21.5395 339.881 20.013C339.881 18.548 340.176 17.2677 340.767 16.1721C341.358 15.0764 342.192 14.2239 343.27 13.6145C344.347 13.0052 345.618 12.7005 347.083 12.7005C348.154 12.7005 349.123 12.8667 349.991 13.1991C350.859 13.5314 351.601 14.0146 352.216 14.6486C352.832 15.2765 353.306 16.0397 353.638 16.9384C353.971 17.8371 354.137 18.8496 354.137 19.976V21.1579H341.469V18.351H349.446C349.44 17.9448 349.336 17.5878 349.132 17.28C348.935 16.9661 348.668 16.723 348.329 16.5506C347.997 16.3721 347.618 16.2829 347.194 16.2829C346.781 16.2829 346.403 16.3721 346.058 16.5506C345.713 16.723 345.436 16.963 345.227 17.2708C345.024 17.5786 344.916 17.9386 344.904 18.351V21.3795C344.904 21.8349 344.999 22.2412 345.19 22.5982C345.381 22.9552 345.655 23.2353 346.012 23.4384C346.369 23.6415 346.8 23.7431 347.304 23.7431C347.655 23.7431 347.975 23.6938 348.265 23.5954C348.56 23.4969 348.812 23.3553 349.022 23.1706C349.231 22.9798 349.385 22.7521 349.483 22.4874H354.137C353.977 23.4723 353.598 24.3278 353.001 25.0542C352.404 25.7743 351.613 26.3345 350.628 26.7346C349.65 27.1285 348.505 27.3255 347.194 27.3255ZM358.55 27.067L355.005 12.8851H360.101L361.726 21.5272H361.837L363.647 12.8851H368.596L370.479 21.4533H370.59L372.141 12.8851H377.238L373.692 27.067H368.189L366.195 19.459H366.047L364.053 27.067H358.55ZM382.74 27.2885C381.836 27.2885 381.035 27.1408 380.34 26.8454C379.65 26.5438 379.109 26.0883 378.715 25.4789C378.321 24.8695 378.124 24.0939 378.124 23.1522C378.124 22.3766 378.256 21.7149 378.521 21.1671C378.786 20.6131 379.155 20.1607 379.629 19.8099C380.103 19.459 380.654 19.1912 381.282 19.0066C381.916 18.8219 382.599 18.7019 383.331 18.6465C384.125 18.5849 384.762 18.5111 385.243 18.4249C385.729 18.3326 386.08 18.2064 386.295 18.0464C386.511 17.8802 386.618 17.6617 386.618 17.3908V17.3539C386.618 16.9846 386.477 16.7014 386.194 16.5045C385.91 16.3075 385.547 16.209 385.104 16.209C384.618 16.209 384.221 16.3167 383.913 16.5322C383.611 16.7414 383.43 17.0646 383.368 17.5016H378.678C378.739 16.6399 379.013 15.8458 379.5 15.1195C379.992 14.387 380.709 13.8023 381.651 13.3653C382.593 12.9221 383.768 12.7005 385.178 12.7005C386.194 12.7005 387.105 12.8205 387.911 13.0606C388.717 13.2945 389.404 13.6238 389.97 14.0485C390.536 14.4671 390.967 14.9595 391.262 15.5258C391.564 16.0859 391.715 16.6953 391.715 17.3539V27.067H386.951V25.0726H386.84C386.557 25.602 386.212 26.0298 385.806 26.356C385.406 26.6822 384.947 26.9192 384.43 27.067C383.919 27.2147 383.356 27.2885 382.74 27.2885ZM384.402 24.0755C384.79 24.0755 385.153 23.9955 385.492 23.8354C385.837 23.6754 386.117 23.4446 386.332 23.1429C386.547 22.8413 386.655 22.4751 386.655 22.0442V20.8624C386.52 20.9178 386.375 20.9701 386.221 21.0194C386.074 21.0686 385.913 21.1148 385.741 21.1579C385.575 21.201 385.396 21.241 385.206 21.2779C385.021 21.3148 384.827 21.3487 384.624 21.3795C384.23 21.441 383.907 21.5426 383.654 21.6841C383.408 21.8196 383.224 21.9888 383.1 22.192C382.984 22.3889 382.925 22.6105 382.925 22.8567C382.925 23.2507 383.064 23.5523 383.341 23.7616C383.618 23.9708 383.971 24.0755 384.402 24.0755ZM396.744 32.3851C396.16 32.3851 395.603 32.339 395.073 32.2466C394.544 32.1605 394.079 32.0404 393.679 31.8866L394.787 28.2672C395.206 28.415 395.587 28.5104 395.932 28.5535C396.283 28.5965 396.581 28.5719 396.828 28.4796C397.08 28.3873 397.262 28.2118 397.372 27.9533L397.483 27.6948L392.497 12.8851H397.816L400.105 22.709H400.253L402.58 12.8851H407.935L402.764 28.2488C402.506 29.0305 402.13 29.7322 401.638 30.3539C401.152 30.9817 400.512 31.4772 399.718 31.8404C398.923 32.2036 397.932 32.3851 396.744 32.3851Z" fill="#073567"/>
<path opacity="0.8" d="M5.92045 49.205H2.5625V40.4777H5.88636C6.78409 40.4777 7.55966 40.6525 8.21307 41.0019C8.86932 41.3485 9.375 41.8485 9.73011 42.5019C10.0881 43.1525 10.267 43.9323 10.267 44.8414C10.267 45.7505 10.0895 46.5317 9.73438 47.1851C9.37926 47.8357 8.87642 48.3357 8.22585 48.6851C7.57528 49.0317 6.80682 49.205 5.92045 49.205ZM4.93182 47.1937H5.83523C6.26705 47.1937 6.63494 47.1241 6.93892 46.9848C7.24574 46.8456 7.47869 46.6056 7.63778 46.2647C7.79972 45.9238 7.88068 45.4493 7.88068 44.8414C7.88068 44.2334 7.7983 43.759 7.63352 43.4181C7.47159 43.0772 7.23295 42.8371 6.91761 42.6979C6.60511 42.5587 6.22159 42.4891 5.76705 42.4891H4.93182V47.1937ZM11.3974 49.205V42.6596H13.6815V43.9039H13.7496C13.869 43.4437 14.0579 43.107 14.3164 42.8939C14.5778 42.6809 14.8832 42.5743 15.2326 42.5743C15.3349 42.5743 15.4357 42.5829 15.5352 42.5999C15.6374 42.6141 15.7354 42.6354 15.8292 42.6638V44.6709C15.7127 44.6312 15.5692 44.6013 15.3988 44.5814C15.2283 44.5616 15.082 44.5516 14.9599 44.5516C14.7298 44.5516 14.5224 44.6042 14.3377 44.7093C14.1559 44.8116 14.0124 44.9564 13.9073 45.1439C13.8022 45.3286 13.7496 45.5459 13.7496 45.7959V49.205H11.3974ZM16.6005 49.205V42.6596H18.9528V49.205H16.6005ZM17.7766 41.9777C17.4585 41.9777 17.1857 41.8726 16.9585 41.6624C16.7312 41.4522 16.6175 41.1993 16.6175 40.9039C16.6175 40.6084 16.7312 40.3556 16.9585 40.1454C17.1857 39.9351 17.4585 39.83 17.7766 39.83C18.0977 39.83 18.3704 39.9351 18.5948 40.1454C18.8221 40.3556 18.9357 40.6084 18.9357 40.9039C18.9357 41.1993 18.8221 41.4522 18.5948 41.6624C18.3704 41.8726 18.0977 41.9777 17.7766 41.9777ZM26.7479 42.6596L24.549 49.205H21.8217L19.6229 42.6596H22.0945L23.1513 46.9891H23.2195L24.2763 42.6596H26.7479ZM27.4169 49.205V42.6596H29.7692V49.205H27.4169ZM28.593 41.9777C28.2749 41.9777 28.0021 41.8726 27.7749 41.6624C27.5476 41.4522 27.4339 41.1993 27.4339 40.9039C27.4339 40.6084 27.5476 40.3556 27.7749 40.1454C28.0021 39.9351 28.2749 39.83 28.593 39.83C28.9141 39.83 29.1868 39.9351 29.4112 40.1454C29.6385 40.3556 29.7521 40.6084 29.7521 40.9039C29.7521 41.1993 29.6385 41.4522 29.4112 41.6624C29.1868 41.8726 28.9141 41.9777 28.593 41.9777ZM33.32 45.5232V49.205H30.9677V42.6596H33.2006V43.9039H33.2688C33.4109 43.4891 33.6609 43.1638 34.0188 42.928C34.3796 42.6922 34.8001 42.5743 35.2802 42.5743C35.7433 42.5743 36.1452 42.6809 36.4862 42.8939C36.8299 43.1042 37.0955 43.3939 37.283 43.7633C37.4734 44.1326 37.5671 44.5544 37.5643 45.0289V49.205H35.212V45.5232C35.2148 45.1993 35.1325 44.9451 34.9648 44.7604C34.8001 44.5758 34.57 44.4834 34.2745 44.4834C34.0813 44.4834 33.9123 44.526 33.7674 44.6113C33.6254 44.6937 33.516 44.813 33.4393 44.9692C33.3626 45.1226 33.3228 45.3073 33.32 45.5232ZM41.8789 51.7959C41.2227 51.7959 40.6602 51.7022 40.1914 51.5147C39.7255 51.33 39.3633 51.0743 39.1048 50.7476C38.8491 50.4238 38.7056 50.0516 38.6744 49.6312H40.9414C40.9641 49.7704 41.021 49.8826 41.1119 49.9678C41.2028 50.053 41.3192 50.1141 41.4613 50.151C41.6062 50.1908 41.7681 50.2107 41.9471 50.2107C42.2511 50.2107 42.5025 50.1368 42.7013 49.9891C42.9031 49.8414 43.0039 49.5743 43.0039 49.188V48.08H42.9357C42.8505 48.3016 42.7198 48.4905 42.5437 48.6468C42.3675 48.8002 42.1559 48.9181 41.9087 49.0005C41.6616 49.08 41.3903 49.1198 41.0948 49.1198C40.6289 49.1198 40.1999 49.0118 39.8079 48.7959C39.4187 48.58 39.1062 48.2377 38.8704 47.7689C38.6374 47.3002 38.521 46.688 38.521 45.9323C38.521 45.1425 38.6431 44.5005 38.8874 44.0062C39.1346 43.5118 39.4528 43.1496 39.842 42.9195C40.234 42.6894 40.646 42.5743 41.0778 42.5743C41.4016 42.5743 41.6857 42.6312 41.93 42.7448C42.1744 42.8556 42.3789 43.0047 42.5437 43.1922C42.7085 43.3769 42.8335 43.58 42.9187 43.8016H42.9698V42.6596H45.3221V49.188C45.3221 49.7419 45.1786 50.2121 44.8917 50.5985C44.6076 50.9877 44.207 51.2846 43.69 51.4891C43.1729 51.6937 42.5692 51.7959 41.8789 51.7959ZM41.9641 47.4493C42.18 47.4493 42.3647 47.3897 42.5181 47.2704C42.6744 47.1482 42.7937 46.9749 42.8761 46.7505C42.9613 46.5232 43.0039 46.2505 43.0039 45.9323C43.0039 45.6084 42.9613 45.3314 42.8761 45.1013C42.7937 44.8684 42.6744 44.6908 42.5181 44.5687C42.3647 44.4437 42.18 44.3812 41.9641 44.3812C41.7482 44.3812 41.5636 44.4437 41.4102 44.5687C41.2596 44.6908 41.1431 44.8684 41.0607 45.1013C40.9812 45.3314 40.9414 45.6084 40.9414 45.9323C40.9414 46.2562 40.9812 46.5317 41.0607 46.759C41.1431 46.9834 41.2596 47.1553 41.4102 47.2746C41.5636 47.3911 41.7482 47.4493 41.9641 47.4493ZM48.9091 49.205V42.6596H51.2614V49.205H48.9091ZM50.0852 41.9777C49.767 41.9777 49.4943 41.8726 49.267 41.6624C49.0398 41.4522 48.9261 41.1993 48.9261 40.9039C48.9261 40.6084 49.0398 40.3556 49.267 40.1454C49.4943 39.9351 49.767 39.83 50.0852 39.83C50.4063 39.83 50.679 39.9351 50.9034 40.1454C51.1307 40.3556 51.2443 40.6084 51.2443 40.9039C51.2443 41.1993 51.1307 41.4522 50.9034 41.6624C50.679 41.8726 50.4063 41.9777 50.0852 41.9777ZM54.8121 45.5232V49.205H52.4599V42.6596H54.6928V43.9039H54.761C54.9031 43.4891 55.1531 43.1638 55.511 42.928C55.8718 42.6922 56.2923 42.5743 56.7724 42.5743C57.2354 42.5743 57.6374 42.6809 57.9783 42.8939C58.3221 43.1042 58.5877 43.3939 58.7752 43.7633C58.9656 44.1326 59.0593 44.5544 59.0565 45.0289V49.205H56.7042V45.5232C56.707 45.1993 56.6246 44.9451 56.457 44.7604C56.2923 44.5758 56.0621 44.4834 55.7667 44.4834C55.5735 44.4834 55.4045 44.526 55.2596 44.6113C55.1175 44.6937 55.0082 44.813 54.9315 44.9692C54.8548 45.1226 54.815 45.3073 54.8121 45.5232ZM62.57 45.5232V49.205H60.2177V42.6596H62.4506V43.9039H62.5188C62.6609 43.4891 62.9109 43.1638 63.2688 42.928C63.6296 42.6922 64.0501 42.5743 64.5302 42.5743C64.9933 42.5743 65.3952 42.6809 65.7362 42.8939C66.0799 43.1042 66.3455 43.3939 66.533 43.7633C66.7234 44.1326 66.8171 44.5544 66.8143 45.0289V49.205H64.462V45.5232C64.4648 45.1993 64.3825 44.9451 64.2148 44.7604C64.0501 44.5758 63.82 44.4834 63.5245 44.4834C63.3313 44.4834 63.1623 44.526 63.0174 44.6113C62.8754 44.6937 62.766 44.813 62.6893 44.9692C62.6126 45.1226 62.5728 45.3073 62.57 45.5232ZM71.1289 49.3243C70.4187 49.3243 69.8107 49.1837 69.305 48.9025C68.7994 48.6184 68.4116 48.2235 68.1417 47.7178C67.8718 47.2093 67.7369 46.6198 67.7369 45.9493C67.7369 45.2789 67.8718 44.6908 68.1417 44.1851C68.4116 43.6766 68.7994 43.2817 69.305 43.0005C69.8107 42.7164 70.4187 42.5743 71.1289 42.5743C71.8391 42.5743 72.4471 42.7164 72.9528 43.0005C73.4585 43.2817 73.8462 43.6766 74.1161 44.1851C74.386 44.6908 74.521 45.2789 74.521 45.9493C74.521 46.6198 74.386 47.2093 74.1161 47.7178C73.8462 48.2235 73.4585 48.6184 72.9528 48.9025C72.4471 49.1837 71.8391 49.3243 71.1289 49.3243ZM71.146 47.5857C71.3448 47.5857 71.5167 47.5189 71.6616 47.3854C71.8065 47.2519 71.9187 47.0616 71.9982 46.8144C72.0778 46.5672 72.1175 46.2732 72.1175 45.9323C72.1175 45.5885 72.0778 45.2945 71.9982 45.0502C71.9187 44.803 71.8065 44.6127 71.6616 44.4792C71.5167 44.3456 71.3448 44.2789 71.146 44.2789C70.9357 44.2789 70.7553 44.3456 70.6048 44.4792C70.4542 44.6127 70.3391 44.803 70.2596 45.0502C70.18 45.2945 70.1403 45.5885 70.1403 45.9323C70.1403 46.2732 70.18 46.5672 70.2596 46.8144C70.3391 47.0616 70.4542 47.2519 70.6048 47.3854C70.7553 47.5189 70.9357 47.5857 71.146 47.5857ZM81.8729 42.6596L79.674 49.205H76.9467L74.7479 42.6596H77.2195L78.2763 46.9891H78.3445L79.4013 42.6596H81.8729ZM84.2017 49.3073C83.7841 49.3073 83.4148 49.2391 83.0938 49.1027C82.7756 48.9635 82.5256 48.7533 82.3438 48.4721C82.1619 48.1908 82.071 47.8329 82.071 47.3982C82.071 47.0402 82.1321 46.7348 82.2543 46.482C82.3764 46.2263 82.5469 46.0175 82.7656 45.8556C82.9844 45.6937 83.2386 45.5701 83.5284 45.4848C83.821 45.3996 84.1364 45.3442 84.4744 45.3187C84.8409 45.2902 85.1349 45.2562 85.3565 45.2164C85.581 45.1738 85.7429 45.1155 85.8423 45.0417C85.9418 44.965 85.9915 44.8641 85.9915 44.7391V44.7221C85.9915 44.5516 85.9261 44.4209 85.7955 44.33C85.6648 44.2391 85.4972 44.1937 85.2926 44.1937C85.0682 44.1937 84.8849 44.2434 84.7429 44.3428C84.6037 44.4394 84.5199 44.5885 84.4915 44.7902H82.3267C82.3551 44.3925 82.4815 44.026 82.706 43.6908C82.9332 43.3527 83.2642 43.0829 83.6989 42.8812C84.1335 42.6766 84.6761 42.5743 85.3267 42.5743C85.7955 42.5743 86.2159 42.6297 86.5881 42.7405C86.9602 42.8485 87.277 43.0005 87.5384 43.1965C87.7997 43.3897 87.9986 43.6169 88.1349 43.8783C88.2741 44.1368 88.3438 44.4181 88.3438 44.7221V49.205H86.1449V48.2846H86.0938C85.9631 48.5289 85.804 48.7263 85.6165 48.8769C85.4318 49.0275 85.2202 49.1368 84.9815 49.205C84.7457 49.2732 84.4858 49.3073 84.2017 49.3073ZM84.9688 47.8243C85.1477 47.8243 85.3153 47.7874 85.4716 47.7135C85.6307 47.6397 85.7599 47.5331 85.8594 47.3939C85.9588 47.2547 86.0085 47.0857 86.0085 46.8868V46.3414C85.946 46.3669 85.8793 46.3911 85.8082 46.4138C85.7401 46.4366 85.6662 46.4579 85.5866 46.4777C85.5099 46.4976 85.4276 46.5161 85.3395 46.5331C85.2543 46.5502 85.1648 46.5658 85.071 46.58C84.8892 46.6084 84.7401 46.6553 84.6236 46.7206C84.5099 46.7831 84.4247 46.8613 84.3679 46.955C84.3139 47.0459 84.2869 47.1482 84.2869 47.2618C84.2869 47.4437 84.3509 47.5829 84.4787 47.6794C84.6065 47.776 84.7699 47.8243 84.9688 47.8243ZM93.3711 42.6596V44.3641H89.0586V42.6596H93.3711ZM89.8938 41.0914H92.2461V47.0999C92.2461 47.1908 92.2617 47.2675 92.293 47.33C92.3242 47.3897 92.3725 47.4351 92.4379 47.4664C92.5032 47.4948 92.587 47.509 92.6893 47.509C92.7603 47.509 92.8427 47.5005 92.9364 47.4834C93.033 47.4664 93.104 47.4522 93.1495 47.4408L93.4904 49.0942C93.3853 49.1255 93.2347 49.1638 93.0387 49.2093C92.8455 49.2547 92.6154 49.2846 92.3484 49.2988C91.8086 49.3272 91.3555 49.2718 90.989 49.1326C90.6225 48.9905 90.3469 48.7675 90.1623 48.4635C89.9776 48.1596 89.8881 47.7789 89.8938 47.3215V41.0914ZM94.331 49.205V42.6596H96.6832V49.205H94.331ZM95.5071 41.9777C95.1889 41.9777 94.9162 41.8726 94.6889 41.6624C94.4616 41.4522 94.348 41.1993 94.348 40.9039C94.348 40.6084 94.4616 40.3556 94.6889 40.1454C94.9162 39.9351 95.1889 39.83 95.5071 39.83C95.8281 39.83 96.1009 39.9351 96.3253 40.1454C96.5526 40.3556 96.6662 40.6084 96.6662 40.9039C96.6662 41.1993 96.5526 41.4522 96.3253 41.6624C96.1009 41.8726 95.8281 41.9777 95.5071 41.9777ZM101.035 49.3243C100.325 49.3243 99.717 49.1837 99.2113 48.9025C98.7056 48.6184 98.3178 48.2235 98.0479 47.7178C97.7781 47.2093 97.6431 46.6198 97.6431 45.9493C97.6431 45.2789 97.7781 44.6908 98.0479 44.1851C98.3178 43.6766 98.7056 43.2817 99.2113 43.0005C99.717 42.7164 100.325 42.5743 101.035 42.5743C101.745 42.5743 102.353 42.7164 102.859 43.0005C103.365 43.2817 103.752 43.6766 104.022 44.1851C104.292 44.6908 104.427 45.2789 104.427 45.9493C104.427 46.6198 104.292 47.2093 104.022 47.7178C103.752 48.2235 103.365 48.6184 102.859 48.9025C102.353 49.1837 101.745 49.3243 101.035 49.3243ZM101.052 47.5857C101.251 47.5857 101.423 47.5189 101.568 47.3854C101.713 47.2519 101.825 47.0616 101.904 46.8144C101.984 46.5672 102.024 46.2732 102.024 45.9323C102.024 45.5885 101.984 45.2945 101.904 45.0502C101.825 44.803 101.713 44.6127 101.568 44.4792C101.423 44.3456 101.251 44.2789 101.052 44.2789C100.842 44.2789 100.662 44.3456 100.511 44.4792C100.36 44.6127 100.245 44.803 100.166 45.0502C100.086 45.2945 100.047 45.5885 100.047 45.9323C100.047 46.2732 100.086 46.5672 100.166 46.8144C100.245 47.0616 100.36 47.2519 100.511 47.3854C100.662 47.5189 100.842 47.5857 101.052 47.5857ZM107.734 45.5232V49.205H105.382V42.6596H107.615V43.9039H107.683C107.825 43.4891 108.075 43.1638 108.433 42.928C108.794 42.6922 109.214 42.5743 109.694 42.5743C110.157 42.5743 110.559 42.6809 110.9 42.8939C111.244 43.1042 111.51 43.3939 111.697 43.7633C111.887 44.1326 111.981 44.5544 111.978 45.0289V49.205H109.626V45.5232C109.629 45.1993 109.547 44.9451 109.379 44.7604C109.214 44.5758 108.984 44.4834 108.689 44.4834C108.495 44.4834 108.326 44.526 108.181 44.6113C108.039 44.6937 107.93 44.813 107.853 44.9692C107.777 45.1226 107.737 45.3073 107.734 45.5232ZM115.424 48.0118L115.39 48.4891C115.361 48.8982 115.293 49.2902 115.185 49.6652C115.08 50.0402 114.968 50.3726 114.848 50.6624C114.732 50.9522 114.64 51.1766 114.571 51.3357H113.123C113.168 51.1766 113.232 50.9465 113.314 50.6454C113.4 50.3471 113.476 50.009 113.544 49.6312C113.615 49.2562 113.651 48.8755 113.651 48.4891V48.0118H115.424ZM121.807 49.3243C121.108 49.3243 120.506 49.1908 120 48.9238C119.498 48.6539 119.11 48.2675 118.837 47.7647C118.567 47.259 118.432 46.6539 118.432 45.9493C118.432 45.2732 118.569 44.6823 118.841 44.1766C119.114 43.6709 119.499 43.2775 119.996 42.9962C120.493 42.715 121.08 42.5743 121.756 42.5743C122.25 42.5743 122.698 42.651 123.098 42.8044C123.499 42.9579 123.841 43.1809 124.125 43.4735C124.409 43.7633 124.628 44.1155 124.782 44.5303C124.935 44.9451 125.012 45.4124 125.012 45.9323V46.4777H119.165V45.1823H122.847C122.844 44.9948 122.796 44.83 122.702 44.688C122.611 44.5431 122.488 44.4309 122.331 44.3513C122.178 44.2689 122.003 44.2277 121.807 44.2277C121.617 44.2277 121.442 44.2689 121.283 44.3513C121.124 44.4309 120.996 44.5417 120.9 44.6837C120.806 44.8258 120.756 44.9919 120.75 45.1823V46.58C120.75 46.7902 120.794 46.9777 120.882 47.1425C120.971 47.3073 121.097 47.4366 121.262 47.5303C121.426 47.6241 121.625 47.6709 121.858 47.6709C122.02 47.6709 122.168 47.6482 122.301 47.6027C122.438 47.5573 122.554 47.4919 122.651 47.4067C122.748 47.3187 122.819 47.2135 122.864 47.0914H125.012C124.938 47.5459 124.763 47.9408 124.488 48.276C124.212 48.6084 123.847 48.8669 123.392 49.0516C122.941 49.2334 122.412 49.3243 121.807 49.3243ZM125.972 49.205V42.6596H128.205V43.9039H128.273C128.409 43.4948 128.642 43.1709 128.972 42.9323C129.301 42.6937 129.693 42.5743 130.148 42.5743C130.608 42.5743 131.004 42.6965 131.337 42.9408C131.669 43.1823 131.869 43.5033 131.938 43.9039H132.006C132.116 43.5033 132.352 43.1823 132.713 42.9408C133.074 42.6965 133.497 42.5743 133.983 42.5743C134.611 42.5743 135.119 42.776 135.509 43.1794C135.901 43.5829 136.097 44.1198 136.097 44.7902V49.205H133.744V45.3868C133.744 45.0999 133.672 44.8755 133.527 44.7135C133.382 44.5488 133.188 44.4664 132.943 44.4664C132.702 44.4664 132.51 44.5488 132.368 44.7135C132.229 44.8755 132.159 45.0999 132.159 45.3868V49.205H129.909V45.3868C129.909 45.0999 129.837 44.8755 129.692 44.7135C129.547 44.5488 129.352 44.4664 129.108 44.4664C128.946 44.4664 128.807 44.5033 128.69 44.5772C128.574 44.651 128.483 44.7576 128.418 44.8968C128.355 45.0331 128.324 45.1965 128.324 45.3868V49.205H125.972ZM137.257 51.6596V42.6596H139.592V43.8016H139.643C139.728 43.58 139.853 43.3769 140.018 43.1922C140.183 43.0047 140.387 42.8556 140.632 42.7448C140.876 42.6312 141.16 42.5743 141.484 42.5743C141.916 42.5743 142.326 42.6894 142.716 42.9195C143.108 43.1496 143.426 43.5118 143.67 44.0062C143.917 44.5005 144.041 45.1425 144.041 45.9323C144.041 46.688 143.923 47.3144 143.687 47.8116C143.454 48.3087 143.142 48.6794 142.75 48.9238C142.36 49.1681 141.933 49.2902 141.467 49.2902C141.16 49.2902 140.886 49.2405 140.645 49.1411C140.406 49.0388 140.201 48.901 140.031 48.7277C139.863 48.5516 139.734 48.3527 139.643 48.1312H139.609V51.6596H137.257ZM139.558 45.9323C139.558 46.2505 139.599 46.526 139.681 46.759C139.767 46.9891 139.886 47.1681 140.039 47.2959C140.196 47.4209 140.382 47.4834 140.598 47.4834C140.814 47.4834 140.997 47.4223 141.147 47.3002C141.301 47.1752 141.417 46.9976 141.497 46.7675C141.579 46.5346 141.62 46.2562 141.62 45.9323C141.62 45.6084 141.579 45.3314 141.497 45.1013C141.417 44.8684 141.301 44.6908 141.147 44.5687C140.997 44.4437 140.814 44.3812 140.598 44.3812C140.382 44.3812 140.196 44.4437 140.039 44.5687C139.886 44.6908 139.767 44.8684 139.681 45.1013C139.599 45.3314 139.558 45.6084 139.558 45.9323ZM148.18 49.3243C147.469 49.3243 146.862 49.1837 146.356 48.9025C145.85 48.6184 145.462 48.2235 145.192 47.7178C144.923 47.2093 144.788 46.6198 144.788 45.9493C144.788 45.2789 144.923 44.6908 145.192 44.1851C145.462 43.6766 145.85 43.2817 146.356 43.0005C146.862 42.7164 147.469 42.5743 148.18 42.5743C148.89 42.5743 149.498 42.7164 150.004 43.0005C150.509 43.2817 150.897 43.6766 151.167 44.1851C151.437 44.6908 151.572 45.2789 151.572 45.9493C151.572 46.6198 151.437 47.2093 151.167 47.7178C150.897 48.2235 150.509 48.6184 150.004 48.9025C149.498 49.1837 148.89 49.3243 148.18 49.3243ZM148.197 47.5857C148.396 47.5857 148.567 47.5189 148.712 47.3854C148.857 47.2519 148.969 47.0616 149.049 46.8144C149.129 46.5672 149.168 46.2732 149.168 45.9323C149.168 45.5885 149.129 45.2945 149.049 45.0502C148.969 44.803 148.857 44.6127 148.712 44.4792C148.567 44.3456 148.396 44.2789 148.197 44.2789C147.987 44.2789 147.806 44.3456 147.656 44.4792C147.505 44.6127 147.39 44.803 147.31 45.0502C147.231 45.2945 147.191 45.5885 147.191 45.9323C147.191 46.2732 147.231 46.5672 147.31 46.8144C147.39 47.0616 147.505 47.2519 147.656 47.3854C147.806 47.5189 147.987 47.5857 148.197 47.5857ZM153.568 49.205L151.932 42.6596H154.284L155.034 46.6482H155.085L155.92 42.6596H158.205L159.074 46.6141H159.125L159.841 42.6596H162.193L160.557 49.205H158.017L157.097 45.6937H157.028L156.108 49.205H153.568ZM165.928 49.3243C165.229 49.3243 164.627 49.1908 164.121 48.9238C163.619 48.6539 163.231 48.2675 162.958 47.7647C162.688 47.259 162.553 46.6539 162.553 45.9493C162.553 45.2732 162.69 44.6823 162.962 44.1766C163.235 43.6709 163.62 43.2775 164.117 42.9962C164.614 42.715 165.201 42.5743 165.877 42.5743C166.371 42.5743 166.819 42.651 167.219 42.8044C167.62 42.9579 167.962 43.1809 168.246 43.4735C168.531 43.7633 168.749 44.1155 168.903 44.5303C169.056 44.9451 169.133 45.4124 169.133 45.9323V46.4777H163.286V45.1823H166.968C166.965 44.9948 166.917 44.83 166.823 44.688C166.732 44.5431 166.609 44.4309 166.452 44.3513C166.299 44.2689 166.124 44.2277 165.928 44.2277C165.738 44.2277 165.563 44.2689 165.404 44.3513C165.245 44.4309 165.117 44.5417 165.021 44.6837C164.927 44.8258 164.877 44.9919 164.871 45.1823V46.58C164.871 46.7902 164.915 46.9777 165.004 47.1425C165.092 47.3073 165.218 47.4366 165.383 47.5303C165.548 47.6241 165.746 47.6709 165.979 47.6709C166.141 47.6709 166.289 47.6482 166.423 47.6027C166.559 47.5573 166.675 47.4919 166.772 47.4067C166.869 47.3187 166.94 47.2135 166.985 47.0914H169.133C169.059 47.5459 168.884 47.9408 168.609 48.276C168.333 48.6084 167.968 48.8669 167.513 49.0516C167.062 49.2334 166.533 49.3243 165.928 49.3243ZM170.093 49.205V42.6596H172.377V43.9039H172.445C172.564 43.4437 172.753 43.107 173.012 42.8939C173.273 42.6809 173.578 42.5743 173.928 42.5743C174.03 42.5743 174.131 42.5829 174.23 42.5999C174.333 42.6141 174.431 42.6354 174.525 42.6638V44.6709C174.408 44.6312 174.265 44.6013 174.094 44.5814C173.924 44.5616 173.777 44.5516 173.655 44.5516C173.425 44.5516 173.218 44.6042 173.033 44.7093C172.851 44.8116 172.708 44.9564 172.603 45.1439C172.498 45.3286 172.445 45.5459 172.445 45.7959V49.205H170.093ZM175.296 49.205V42.6596H177.648V49.205H175.296ZM176.472 41.9777C176.154 41.9777 175.881 41.8726 175.654 41.6624C175.426 41.4522 175.313 41.1993 175.313 40.9039C175.313 40.6084 175.426 40.3556 175.654 40.1454C175.881 39.9351 176.154 39.83 176.472 39.83C176.793 39.83 177.066 39.9351 177.29 40.1454C177.517 40.3556 177.631 40.6084 177.631 40.9039C177.631 41.1993 177.517 41.4522 177.29 41.6624C177.066 41.8726 176.793 41.9777 176.472 41.9777ZM181.199 45.5232V49.205H178.847V42.6596H181.08V43.9039H181.148C181.29 43.4891 181.54 43.1638 181.898 42.928C182.259 42.6922 182.679 42.5743 183.159 42.5743C183.622 42.5743 184.024 42.6809 184.365 42.8939C184.709 43.1042 184.974 43.3939 185.162 43.7633C185.352 44.1326 185.446 44.5544 185.443 45.0289V49.205H183.091V45.5232C183.094 45.1993 183.011 44.9451 182.844 44.7604C182.679 44.5758 182.449 44.4834 182.153 44.4834C181.96 44.4834 181.791 44.526 181.646 44.6113C181.504 44.6937 181.395 44.813 181.318 44.9692C181.241 45.1226 181.202 45.3073 181.199 45.5232ZM189.758 51.7959C189.102 51.7959 188.539 51.7022 188.07 51.5147C187.604 51.33 187.242 51.0743 186.984 50.7476C186.728 50.4238 186.585 50.0516 186.553 49.6312H188.82C188.843 49.7704 188.9 49.8826 188.991 49.9678C189.082 50.053 189.198 50.1141 189.34 50.151C189.485 50.1908 189.647 50.2107 189.826 50.2107C190.13 50.2107 190.381 50.1368 190.58 49.9891C190.782 49.8414 190.883 49.5743 190.883 49.188V48.08H190.815C190.729 48.3016 190.599 48.4905 190.423 48.6468C190.246 48.8002 190.035 48.9181 189.788 49.0005C189.54 49.08 189.269 49.1198 188.974 49.1198C188.508 49.1198 188.079 49.0118 187.687 48.7959C187.298 48.58 186.985 48.2377 186.749 47.7689C186.516 47.3002 186.4 46.688 186.4 45.9323C186.4 45.1425 186.522 44.5005 186.766 44.0062C187.013 43.5118 187.332 43.1496 187.721 42.9195C188.113 42.6894 188.525 42.5743 188.957 42.5743C189.281 42.5743 189.565 42.6312 189.809 42.7448C190.053 42.8556 190.258 43.0047 190.423 43.1922C190.587 43.3769 190.712 43.58 190.798 43.8016H190.849V42.6596H193.201V49.188C193.201 49.7419 193.058 50.2121 192.771 50.5985C192.487 50.9877 192.086 51.2846 191.569 51.4891C191.052 51.6937 190.448 51.7959 189.758 51.7959ZM189.843 47.4493C190.059 47.4493 190.244 47.3897 190.397 47.2704C190.553 47.1482 190.673 46.9749 190.755 46.7505C190.84 46.5232 190.883 46.2505 190.883 45.9323C190.883 45.6084 190.84 45.3314 190.755 45.1013C190.673 44.8684 190.553 44.6908 190.397 44.5687C190.244 44.4437 190.059 44.3812 189.843 44.3812C189.627 44.3812 189.442 44.4437 189.289 44.5687C189.138 44.6908 189.022 44.8684 188.94 45.1013C188.86 45.3314 188.82 45.6084 188.82 45.9323C188.82 46.2562 188.86 46.5317 188.94 46.759C189.022 46.9834 189.138 47.1553 189.289 47.2746C189.442 47.3911 189.627 47.4493 189.843 47.4493ZM199.924 49.3243C199.225 49.3243 198.623 49.1908 198.118 48.9238C197.615 48.6539 197.227 48.2675 196.954 47.7647C196.684 47.259 196.549 46.6539 196.549 45.9493C196.549 45.2732 196.686 44.6823 196.958 44.1766C197.231 43.6709 197.616 43.2775 198.113 42.9962C198.61 42.715 199.197 42.5743 199.873 42.5743C200.368 42.5743 200.815 42.651 201.216 42.8044C201.616 42.9579 201.958 43.1809 202.243 43.4735C202.527 43.7633 202.745 44.1155 202.899 44.5303C203.052 44.9451 203.129 45.4124 203.129 45.9323V46.4777H197.282V45.1823H200.964C200.961 44.9948 200.913 44.83 200.819 44.688C200.728 44.5431 200.605 44.4309 200.449 44.3513C200.295 44.2689 200.12 44.2277 199.924 44.2277C199.734 44.2277 199.559 44.2689 199.4 44.3513C199.241 44.4309 199.113 44.5417 199.017 44.6837C198.923 44.8258 198.873 44.9919 198.868 45.1823V46.58C198.868 46.7902 198.912 46.9777 199 47.1425C199.088 47.3073 199.214 47.4366 199.379 47.5303C199.544 47.6241 199.743 47.6709 199.975 47.6709C200.137 47.6709 200.285 47.6482 200.419 47.6027C200.555 47.5573 200.672 47.4919 200.768 47.4067C200.865 47.3187 200.936 47.2135 200.981 47.0914H203.129C203.055 47.5459 202.88 47.9408 202.605 48.276C202.329 48.6084 201.964 48.8669 201.51 49.0516C201.058 49.2334 200.529 49.3243 199.924 49.3243ZM206.441 45.5232V49.205H204.089V42.6596H206.322V43.9039H206.39C206.532 43.4891 206.782 43.1638 207.14 42.928C207.501 42.6922 207.921 42.5743 208.401 42.5743C208.864 42.5743 209.266 42.6809 209.607 42.8939C209.951 43.1042 210.217 43.3939 210.404 43.7633C210.594 44.1326 210.688 44.5544 210.685 45.0289V49.205H208.333V45.5232C208.336 45.1993 208.254 44.9451 208.086 44.7604C207.921 44.5758 207.691 44.4834 207.396 44.4834C207.202 44.4834 207.033 44.526 206.888 44.6113C206.746 44.6937 206.637 44.813 206.56 44.9692C206.484 45.1226 206.444 45.3073 206.441 45.5232ZM215.75 42.6596V44.3641H211.438V42.6596H215.75ZM212.273 41.0914H214.625V47.0999C214.625 47.1908 214.641 47.2675 214.672 47.33C214.703 47.3897 214.751 47.4351 214.817 47.4664C214.882 47.4948 214.966 47.509 215.068 47.509C215.139 47.509 215.222 47.5005 215.315 47.4834C215.412 47.4664 215.483 47.4522 215.528 47.4408L215.869 49.0942C215.764 49.1255 215.614 49.1638 215.418 49.2093C215.224 49.2547 214.994 49.2846 214.727 49.2988C214.188 49.3272 213.734 49.2718 213.368 49.1326C213.001 48.9905 212.726 48.7675 212.541 48.4635C212.357 48.1596 212.267 47.7789 212.273 47.3215V41.0914ZM219.776 49.3243C219.077 49.3243 218.475 49.1908 217.969 48.9238C217.466 48.6539 217.078 48.2675 216.806 47.7647C216.536 47.259 216.401 46.6539 216.401 45.9493C216.401 45.2732 216.537 44.6823 216.81 44.1766C217.083 43.6709 217.468 43.2775 217.965 42.9962C218.462 42.715 219.049 42.5743 219.725 42.5743C220.219 42.5743 220.667 42.651 221.067 42.8044C221.468 42.9579 221.81 43.1809 222.094 43.4735C222.378 43.7633 222.597 44.1155 222.75 44.5303C222.904 44.9451 222.98 45.4124 222.98 45.9323V46.4777H217.134V45.1823H220.816C220.813 44.9948 220.765 44.83 220.671 44.688C220.58 44.5431 220.456 44.4309 220.3 44.3513C220.147 44.2689 219.972 44.2277 219.776 44.2277C219.586 44.2277 219.411 44.2689 219.252 44.3513C219.093 44.4309 218.965 44.5417 218.868 44.6837C218.775 44.8258 218.725 44.9919 218.719 45.1823V46.58C218.719 46.7902 218.763 46.9777 218.851 47.1425C218.939 47.3073 219.066 47.4366 219.23 47.5303C219.395 47.6241 219.594 47.6709 219.827 47.6709C219.989 47.6709 220.137 47.6482 220.27 47.6027C220.407 47.5573 220.523 47.4919 220.62 47.4067C220.716 47.3187 220.787 47.2135 220.833 47.0914H222.98C222.907 47.5459 222.732 47.9408 222.456 48.276C222.181 48.6084 221.816 48.8669 221.361 49.0516C220.909 49.2334 220.381 49.3243 219.776 49.3243ZM223.94 49.205V42.6596H226.224V43.9039H226.293C226.412 43.4437 226.601 43.107 226.859 42.8939C227.121 42.6809 227.426 42.5743 227.776 42.5743C227.878 42.5743 227.979 42.5829 228.078 42.5999C228.18 42.6141 228.278 42.6354 228.372 42.6638V44.6709C228.256 44.6312 228.112 44.6013 227.942 44.5814C227.771 44.5616 227.625 44.5516 227.503 44.5516C227.273 44.5516 227.065 44.6042 226.881 44.7093C226.699 44.8116 226.555 44.9564 226.45 45.1439C226.345 45.3286 226.293 45.5459 226.293 45.7959V49.205H223.94ZM229.143 51.6596V42.6596H231.479V43.8016H231.53C231.615 43.58 231.74 43.3769 231.905 43.1922C232.07 43.0047 232.274 42.8556 232.518 42.7448C232.763 42.6312 233.047 42.5743 233.371 42.5743C233.803 42.5743 234.213 42.6894 234.602 42.9195C234.994 43.1496 235.313 43.5118 235.557 44.0062C235.804 44.5005 235.928 45.1425 235.928 45.9323C235.928 46.688 235.81 47.3144 235.574 47.8116C235.341 48.3087 235.028 48.6794 234.636 48.9238C234.247 49.1681 233.82 49.2902 233.354 49.2902C233.047 49.2902 232.773 49.2405 232.531 49.1411C232.293 49.0388 232.088 48.901 231.918 48.7277C231.75 48.5516 231.621 48.3527 231.53 48.1312H231.496V51.6596H229.143ZM231.445 45.9323C231.445 46.2505 231.486 46.526 231.568 46.759C231.653 46.9891 231.773 47.1681 231.926 47.2959C232.082 47.4209 232.268 47.4834 232.484 47.4834C232.7 47.4834 232.884 47.4223 233.034 47.3002C233.188 47.1752 233.304 46.9976 233.384 46.7675C233.466 46.5346 233.507 46.2562 233.507 45.9323C233.507 45.6084 233.466 45.3314 233.384 45.1013C233.304 44.8684 233.188 44.6908 233.034 44.5687C232.884 44.4437 232.7 44.3812 232.484 44.3812C232.268 44.3812 232.082 44.4437 231.926 44.5687C231.773 44.6908 231.653 44.8684 231.568 45.1013C231.486 45.3314 231.445 45.6084 231.445 45.9323ZM236.913 49.205V42.6596H239.197V43.9039H239.265C239.385 43.4437 239.574 43.107 239.832 42.8939C240.093 42.6809 240.399 42.5743 240.748 42.5743C240.85 42.5743 240.951 42.5829 241.051 42.5999C241.153 42.6141 241.251 42.6354 241.345 42.6638V44.6709C241.228 44.6312 241.085 44.6013 240.914 44.5814C240.744 44.5616 240.598 44.5516 240.475 44.5516C240.245 44.5516 240.038 44.6042 239.853 44.7093C239.672 44.8116 239.528 44.9564 239.423 45.1439C239.318 45.3286 239.265 45.5459 239.265 45.7959V49.205H236.913ZM242.116 49.205V42.6596H244.468V49.205H242.116ZM243.292 41.9777C242.974 41.9777 242.701 41.8726 242.474 41.6624C242.247 41.4522 242.133 41.1993 242.133 40.9039C242.133 40.6084 242.247 40.3556 242.474 40.1454C242.701 39.9351 242.974 39.83 243.292 39.83C243.613 39.83 243.886 39.9351 244.11 40.1454C244.338 40.3556 244.451 40.6084 244.451 40.9039C244.451 41.1993 244.338 41.4522 244.11 41.6624C243.886 41.8726 243.613 41.9777 243.292 41.9777ZM251.65 44.7902H249.485C249.474 44.6567 249.427 44.5417 249.344 44.4451C249.262 44.3485 249.156 44.2746 249.025 44.2235C248.897 44.1695 248.755 44.1425 248.599 44.1425C248.397 44.1425 248.224 44.1794 248.079 44.2533C247.934 44.3272 247.863 44.4323 247.866 44.5687C247.863 44.6652 247.904 44.7547 247.989 44.8371C248.077 44.9195 248.246 44.9834 248.496 45.0289L249.826 45.2675C250.496 45.3897 250.995 45.5956 251.322 45.8854C251.651 46.1723 251.817 46.5573 251.82 47.0402C251.817 47.5062 251.678 47.911 251.403 48.2547C251.13 48.5956 250.756 48.8598 250.282 49.0473C249.81 49.232 249.272 49.3243 248.667 49.3243C247.667 49.3243 246.884 49.1198 246.319 48.7107C245.756 48.3016 245.442 47.7618 245.377 47.0914H247.712C247.744 47.2988 247.846 47.4593 248.019 47.5729C248.195 47.6837 248.417 47.7391 248.684 47.7391C248.9 47.7391 249.077 47.7022 249.217 47.6283C249.359 47.5544 249.431 47.4493 249.434 47.313C249.431 47.188 249.369 47.0885 249.246 47.0147C249.127 46.9408 248.94 46.8812 248.684 46.8357L247.525 46.6312C246.857 46.5147 246.357 46.2931 246.025 45.9664C245.692 45.6397 245.528 45.2192 245.531 44.705C245.528 44.2505 245.647 43.8655 245.888 43.5502C246.133 43.232 246.481 42.9905 246.933 42.8258C247.387 42.6581 247.925 42.5743 248.548 42.5743C249.494 42.5743 250.239 42.7704 250.785 43.1624C251.333 43.5544 251.621 44.0971 251.65 44.7902ZM255.858 49.3243C255.159 49.3243 254.557 49.1908 254.051 48.9238C253.548 48.6539 253.161 48.2675 252.888 47.7647C252.618 47.259 252.483 46.6539 252.483 45.9493C252.483 45.2732 252.619 44.6823 252.892 44.1766C253.165 43.6709 253.55 43.2775 254.047 42.9962C254.544 42.715 255.131 42.5743 255.807 42.5743C256.301 42.5743 256.749 42.651 257.149 42.8044C257.55 42.9579 257.892 43.1809 258.176 43.4735C258.46 43.7633 258.679 44.1155 258.832 44.5303C258.986 44.9451 259.062 45.4124 259.062 45.9323V46.4777H253.216V45.1823H256.898C256.895 44.9948 256.847 44.83 256.753 44.688C256.662 44.5431 256.538 44.4309 256.382 44.3513C256.229 44.2689 256.054 44.2277 255.858 44.2277C255.668 44.2277 255.493 44.2689 255.334 44.3513C255.175 44.4309 255.047 44.5417 254.95 44.6837C254.857 44.8258 254.807 44.9919 254.801 45.1823V46.58C254.801 46.7902 254.845 46.9777 254.933 47.1425C255.021 47.3073 255.148 47.4366 255.312 47.5303C255.477 47.6241 255.676 47.6709 255.909 47.6709C256.071 47.6709 256.219 47.6482 256.352 47.6027C256.489 47.5573 256.605 47.4919 256.702 47.4067C256.798 47.3187 256.869 47.2135 256.915 47.0914H259.062C258.989 47.5459 258.814 47.9408 258.538 48.276C258.263 48.6084 257.898 48.8669 257.443 49.0516C256.991 49.2334 256.463 49.3243 255.858 49.3243ZM266.005 44.7902H263.841C263.829 44.6567 263.782 44.5417 263.7 44.4451C263.618 44.3485 263.511 44.2746 263.38 44.2235C263.252 44.1695 263.11 44.1425 262.954 44.1425C262.752 44.1425 262.579 44.1794 262.434 44.2533C262.289 44.3272 262.218 44.4323 262.221 44.5687C262.218 44.6652 262.26 44.7547 262.345 44.8371C262.433 44.9195 262.602 44.9834 262.852 45.0289L264.181 45.2675C264.852 45.3897 265.35 45.5956 265.677 45.8854C266.007 46.1723 266.173 46.5573 266.176 47.0402C266.173 47.5062 266.034 47.911 265.758 48.2547C265.485 48.5956 265.112 48.8598 264.637 49.0473C264.166 49.232 263.627 49.3243 263.022 49.3243C262.022 49.3243 261.24 49.1198 260.674 48.7107C260.112 48.3016 259.798 47.7618 259.733 47.0914H262.068C262.099 47.2988 262.201 47.4593 262.375 47.5729C262.551 47.6837 262.772 47.7391 263.039 47.7391C263.255 47.7391 263.433 47.7022 263.572 47.6283C263.714 47.5544 263.787 47.4493 263.789 47.313C263.787 47.188 263.724 47.0885 263.602 47.0147C263.483 46.9408 263.295 46.8812 263.039 46.8357L261.88 46.6312C261.213 46.5147 260.713 46.2931 260.38 45.9664C260.048 45.6397 259.883 45.2192 259.886 44.705C259.883 44.2505 260.002 43.8655 260.244 43.5502C260.488 43.232 260.836 42.9905 261.288 42.8258C261.743 42.6581 262.281 42.5743 262.903 42.5743C263.849 42.5743 264.595 42.7704 265.14 43.1624C265.689 43.5544 265.977 44.0971 266.005 44.7902ZM269.361 48.0118L269.327 48.4891C269.299 48.8982 269.23 49.2902 269.123 49.6652C269.017 50.0402 268.905 50.3726 268.786 50.6624C268.669 50.9522 268.577 51.1766 268.509 51.3357H267.06C267.105 51.1766 267.169 50.9465 267.252 50.6454C267.337 50.3471 267.414 50.009 267.482 49.6312C267.553 49.2562 267.588 48.8755 267.588 48.4891V48.0118H269.361ZM274.432 49.3073C274.015 49.3073 273.645 49.2391 273.324 49.1027C273.006 48.9635 272.756 48.7533 272.574 48.4721C272.392 48.1908 272.301 47.8329 272.301 47.3982C272.301 47.0402 272.363 46.7348 272.485 46.482C272.607 46.2263 272.777 46.0175 272.996 45.8556C273.215 45.6937 273.469 45.5701 273.759 45.4848C274.051 45.3996 274.367 45.3442 274.705 45.3187C275.071 45.2902 275.365 45.2562 275.587 45.2164C275.811 45.1738 275.973 45.1155 276.073 45.0417C276.172 44.965 276.222 44.8641 276.222 44.7391V44.7221C276.222 44.5516 276.157 44.4209 276.026 44.33C275.895 44.2391 275.728 44.1937 275.523 44.1937C275.299 44.1937 275.115 44.2434 274.973 44.3428C274.834 44.4394 274.75 44.5885 274.722 44.7902H272.557C272.586 44.3925 272.712 44.026 272.936 43.6908C273.164 43.3527 273.495 43.0829 273.929 42.8812C274.364 42.6766 274.907 42.5743 275.557 42.5743C276.026 42.5743 276.446 42.6297 276.819 42.7405C277.191 42.8485 277.507 43.0005 277.769 43.1965C278.03 43.3897 278.229 43.6169 278.365 43.8783C278.505 44.1368 278.574 44.4181 278.574 44.7221V49.205H276.375V48.2846H276.324C276.194 48.5289 276.034 48.7263 275.847 48.8769C275.662 49.0275 275.451 49.1368 275.212 49.205C274.976 49.2732 274.716 49.3073 274.432 49.3073ZM275.199 47.8243C275.378 47.8243 275.546 47.7874 275.702 47.7135C275.861 47.6397 275.99 47.5331 276.09 47.3939C276.189 47.2547 276.239 47.0857 276.239 46.8868V46.3414C276.176 46.3669 276.11 46.3911 276.039 46.4138C275.971 46.4366 275.897 46.4579 275.817 46.4777C275.74 46.4976 275.658 46.5161 275.57 46.5331C275.485 46.5502 275.395 46.5658 275.301 46.58C275.12 46.6084 274.971 46.6553 274.854 46.7206C274.74 46.7831 274.655 46.8613 274.598 46.955C274.544 47.0459 274.517 47.1482 274.517 47.2618C274.517 47.4437 274.581 47.5829 274.709 47.6794C274.837 47.776 275 47.8243 275.199 47.8243ZM282.05 45.5232V49.205H279.698V42.6596H281.931V43.9039H281.999C282.141 43.4891 282.391 43.1638 282.749 42.928C283.11 42.6922 283.531 42.5743 284.011 42.5743C284.474 42.5743 284.876 42.6809 285.217 42.8939C285.56 43.1042 285.826 43.3939 286.013 43.7633C286.204 44.1326 286.298 44.5544 286.295 45.0289V49.205H283.942V45.5232C283.945 45.1993 283.863 44.9451 283.695 44.7604C283.531 44.5758 283.3 44.4834 283.005 44.4834C282.812 44.4834 282.643 44.526 282.498 44.6113C282.356 44.6937 282.246 44.813 282.17 44.9692C282.093 45.1226 282.053 45.3073 282.05 45.5232ZM289.825 49.2902C289.359 49.2902 288.93 49.1681 288.538 48.9238C288.149 48.6794 287.837 48.3087 287.601 47.8116C287.368 47.3144 287.251 46.688 287.251 45.9323C287.251 45.1425 287.374 44.5005 287.618 44.0062C287.865 43.5118 288.183 43.1496 288.572 42.9195C288.964 42.6894 289.376 42.5743 289.808 42.5743C290.132 42.5743 290.416 42.6312 290.661 42.7448C290.905 42.8556 291.109 43.0047 291.274 43.1922C291.439 43.3769 291.564 43.58 291.649 43.8016H291.683V40.4777H294.036V49.205H291.7V48.1312H291.649C291.558 48.3527 291.428 48.5516 291.257 48.7277C291.089 48.901 290.885 49.0388 290.643 49.1411C290.405 49.2405 290.132 49.2902 289.825 49.2902ZM290.695 47.4834C290.911 47.4834 291.095 47.4209 291.249 47.2959C291.405 47.1681 291.524 46.9891 291.607 46.759C291.692 46.526 291.734 46.2505 291.734 45.9323C291.734 45.6084 291.692 45.3314 291.607 45.1013C291.524 44.8684 291.405 44.6908 291.249 44.5687C291.095 44.4437 290.911 44.3812 290.695 44.3812C290.479 44.3812 290.294 44.4437 290.141 44.5687C289.99 44.6908 289.874 44.8684 289.791 45.1013C289.712 45.3314 289.672 45.6084 289.672 45.9323C289.672 46.2562 289.712 46.5346 289.791 46.7675C289.874 46.9976 289.99 47.1752 290.141 47.3002C290.294 47.4223 290.479 47.4834 290.695 47.4834ZM303.564 44.7902H301.399C301.388 44.6567 301.341 44.5417 301.259 44.4451C301.176 44.3485 301.07 44.2746 300.939 44.2235C300.811 44.1695 300.669 44.1425 300.513 44.1425C300.311 44.1425 300.138 44.1794 299.993 44.2533C299.848 44.3272 299.777 44.4323 299.78 44.5687C299.777 44.6652 299.818 44.7547 299.903 44.8371C299.991 44.9195 300.161 44.9834 300.411 45.0289L301.74 45.2675C302.411 45.3897 302.909 45.5956 303.236 45.8854C303.565 46.1723 303.732 46.5573 303.734 47.0402C303.732 47.5062 303.592 47.911 303.317 48.2547C303.044 48.5956 302.67 48.8598 302.196 49.0473C301.724 49.232 301.186 49.3243 300.581 49.3243C299.581 49.3243 298.798 49.1198 298.233 48.7107C297.67 48.3016 297.357 47.7618 297.291 47.0914H299.626C299.658 47.2988 299.76 47.4593 299.933 47.5729C300.109 47.6837 300.331 47.7391 300.598 47.7391C300.814 47.7391 300.991 47.7022 301.131 47.6283C301.273 47.5544 301.345 47.4493 301.348 47.313C301.345 47.188 301.283 47.0885 301.161 47.0147C301.041 46.9408 300.854 46.8812 300.598 46.8357L299.439 46.6312C298.771 46.5147 298.271 46.2931 297.939 45.9664C297.607 45.6397 297.442 45.2192 297.445 44.705C297.442 44.2505 297.561 43.8655 297.803 43.5502C298.047 43.232 298.395 42.9905 298.847 42.8258C299.301 42.6581 299.839 42.5743 300.462 42.5743C301.408 42.5743 302.153 42.7704 302.699 43.1624C303.247 43.5544 303.536 44.0971 303.564 44.7902ZM306.988 45.5232V49.205H304.636V40.4777H306.903V43.9039H306.971C307.119 43.4863 307.364 43.161 307.708 42.928C308.052 42.6922 308.465 42.5743 308.948 42.5743C309.411 42.5743 309.813 42.6794 310.154 42.8897C310.498 43.0999 310.763 43.3897 310.951 43.759C311.141 44.1283 311.235 44.5516 311.232 45.0289V49.205H308.88V45.5232C308.883 45.1993 308.802 44.9451 308.637 44.7604C308.475 44.5758 308.244 44.4834 307.942 44.4834C307.752 44.4834 307.585 44.526 307.44 44.6113C307.298 44.6937 307.187 44.813 307.107 44.9692C307.031 45.1226 306.991 45.3073 306.988 45.5232ZM314.217 49.3073C313.8 49.3073 313.43 49.2391 313.109 49.1027C312.791 48.9635 312.541 48.7533 312.359 48.4721C312.178 48.1908 312.087 47.8329 312.087 47.3982C312.087 47.0402 312.148 46.7348 312.27 46.482C312.392 46.2263 312.562 46.0175 312.781 45.8556C313 45.6937 313.254 45.5701 313.544 45.4848C313.837 45.3996 314.152 45.3442 314.49 45.3187C314.857 45.2902 315.151 45.2562 315.372 45.2164C315.597 45.1738 315.759 45.1155 315.858 45.0417C315.957 44.965 316.007 44.8641 316.007 44.7391V44.7221C316.007 44.5516 315.942 44.4209 315.811 44.33C315.68 44.2391 315.513 44.1937 315.308 44.1937C315.084 44.1937 314.901 44.2434 314.759 44.3428C314.619 44.4394 314.536 44.5885 314.507 44.7902H312.342C312.371 44.3925 312.497 44.026 312.722 43.6908C312.949 43.3527 313.28 43.0829 313.714 42.8812C314.149 42.6766 314.692 42.5743 315.342 42.5743C315.811 42.5743 316.232 42.6297 316.604 42.7405C316.976 42.8485 317.293 43.0005 317.554 43.1965C317.815 43.3897 318.014 43.6169 318.151 43.8783C318.29 44.1368 318.359 44.4181 318.359 44.7221V49.205H316.161V48.2846H316.109C315.979 48.5289 315.82 48.7263 315.632 48.8769C315.447 49.0275 315.236 49.1368 314.997 49.205C314.761 49.2732 314.501 49.3073 314.217 49.3073ZM314.984 47.8243C315.163 47.8243 315.331 47.7874 315.487 47.7135C315.646 47.6397 315.776 47.5331 315.875 47.3939C315.974 47.2547 316.024 47.0857 316.024 46.8868V46.3414C315.962 46.3669 315.895 46.3911 315.824 46.4138C315.756 46.4366 315.682 46.4579 315.602 46.4777C315.526 46.4976 315.443 46.5161 315.355 46.5331C315.27 46.5502 315.18 46.5658 315.087 46.58C314.905 46.6084 314.756 46.6553 314.639 46.7206C314.526 46.7831 314.44 46.8613 314.384 46.955C314.33 47.0459 314.303 47.1482 314.303 47.2618C314.303 47.4437 314.366 47.5829 314.494 47.6794C314.622 47.776 314.786 47.8243 314.984 47.8243ZM319.483 51.6596V42.6596H321.819V43.8016H321.87C321.955 43.58 322.08 43.3769 322.245 43.1922C322.409 43.0047 322.614 42.8556 322.858 42.7448C323.103 42.6312 323.387 42.5743 323.711 42.5743C324.142 42.5743 324.553 42.6894 324.942 42.9195C325.334 43.1496 325.652 43.5118 325.897 44.0062C326.144 44.5005 326.267 45.1425 326.267 45.9323C326.267 46.688 326.15 47.3144 325.914 47.8116C325.681 48.3087 325.368 48.6794 324.976 48.9238C324.587 49.1681 324.159 49.2902 323.694 49.2902C323.387 49.2902 323.113 49.2405 322.871 49.1411C322.632 49.0388 322.428 48.901 322.257 48.7277C322.09 48.5516 321.961 48.3527 321.87 48.1312H321.836V51.6596H319.483ZM321.784 45.9323C321.784 46.2505 321.826 46.526 321.908 46.759C321.993 46.9891 322.113 47.1681 322.266 47.2959C322.422 47.4209 322.608 47.4834 322.824 47.4834C323.04 47.4834 323.223 47.4223 323.374 47.3002C323.527 47.1752 323.644 46.9976 323.723 46.7675C323.806 46.5346 323.847 46.2562 323.847 45.9323C323.847 45.6084 323.806 45.3314 323.723 45.1013C323.644 44.8684 323.527 44.6908 323.374 44.5687C323.223 44.4437 323.04 44.3812 322.824 44.3812C322.608 44.3812 322.422 44.4437 322.266 44.5687C322.113 44.6908 321.993 44.8684 321.908 45.1013C321.826 45.3314 321.784 45.6084 321.784 45.9323ZM327.253 49.205V42.6596H329.605V49.205H327.253ZM328.429 41.9777C328.111 41.9777 327.838 41.8726 327.611 41.6624C327.384 41.4522 327.27 41.1993 327.27 40.9039C327.27 40.6084 327.384 40.3556 327.611 40.1454C327.838 39.9351 328.111 39.83 328.429 39.83C328.75 39.83 329.023 39.9351 329.247 40.1454C329.474 40.3556 329.588 40.6084 329.588 40.9039C329.588 41.1993 329.474 41.4522 329.247 41.6624C329.023 41.8726 328.75 41.9777 328.429 41.9777ZM333.156 45.5232V49.205H330.804V42.6596H333.037V43.9039H333.105C333.247 43.4891 333.497 43.1638 333.855 42.928C334.216 42.6922 334.636 42.5743 335.116 42.5743C335.579 42.5743 335.981 42.6809 336.322 42.8939C336.666 43.1042 336.931 43.3939 337.119 43.7633C337.309 44.1326 337.403 44.5544 337.4 45.0289V49.205H335.048V45.5232C335.051 45.1993 334.968 44.9451 334.801 44.7604C334.636 44.5758 334.406 44.4834 334.11 44.4834C333.917 44.4834 333.748 44.526 333.603 44.6113C333.461 44.6937 333.352 44.813 333.275 44.9692C333.199 45.1226 333.159 45.3073 333.156 45.5232ZM341.715 51.7959C341.059 51.7959 340.496 51.7022 340.027 51.5147C339.561 51.33 339.199 51.0743 338.941 50.7476C338.685 50.4238 338.542 50.0516 338.51 49.6312H340.777C340.8 49.7704 340.857 49.8826 340.948 49.9678C341.039 50.053 341.155 50.1141 341.297 50.151C341.442 50.1908 341.604 50.2107 341.783 50.2107C342.087 50.2107 342.338 50.1368 342.537 49.9891C342.739 49.8414 342.84 49.5743 342.84 49.188V48.08H342.772C342.686 48.3016 342.556 48.4905 342.38 48.6468C342.203 48.8002 341.992 48.9181 341.745 49.0005C341.498 49.08 341.226 49.1198 340.931 49.1198C340.465 49.1198 340.036 49.0118 339.644 48.7959C339.255 48.58 338.942 48.2377 338.706 47.7689C338.473 47.3002 338.357 46.688 338.357 45.9323C338.357 45.1425 338.479 44.5005 338.723 44.0062C338.971 43.5118 339.289 43.1496 339.678 42.9195C340.07 42.6894 340.482 42.5743 340.914 42.5743C341.238 42.5743 341.522 42.6312 341.766 42.7448C342.01 42.8556 342.215 43.0047 342.38 43.1922C342.544 43.3769 342.669 43.58 342.755 43.8016H342.806V42.6596H345.158V49.188C345.158 49.7419 345.015 50.2121 344.728 50.5985C344.444 50.9877 344.043 51.2846 343.526 51.4891C343.009 51.6937 342.405 51.7959 341.715 51.7959ZM341.8 47.4493C342.016 47.4493 342.201 47.3897 342.354 47.2704C342.51 47.1482 342.63 46.9749 342.712 46.7505C342.797 46.5232 342.84 46.2505 342.84 45.9323C342.84 45.6084 342.797 45.3314 342.712 45.1013C342.63 44.8684 342.51 44.6908 342.354 44.5687C342.201 44.4437 342.016 44.3812 341.8 44.3812C341.584 44.3812 341.4 44.4437 341.246 44.5687C341.096 44.6908 340.979 44.8684 340.897 45.1013C340.817 45.3314 340.777 45.6084 340.777 45.9323C340.777 46.2562 340.817 46.5317 340.897 46.759C340.979 46.9834 341.096 47.1553 341.246 47.2746C341.4 47.3911 341.584 47.4493 341.8 47.4493ZM352.648 42.6596V44.3641H348.336V42.6596H352.648ZM349.171 41.0914H351.523V47.0999C351.523 47.1908 351.539 47.2675 351.57 47.33C351.602 47.3897 351.65 47.4351 351.715 47.4664C351.781 47.4948 351.864 47.509 351.967 47.509C352.038 47.509 352.12 47.5005 352.214 47.4834C352.31 47.4664 352.381 47.4522 352.427 47.4408L352.768 49.0942C352.663 49.1255 352.512 49.1638 352.316 49.2093C352.123 49.2547 351.893 49.2846 351.626 49.2988C351.086 49.3272 350.633 49.2718 350.266 49.1326C349.9 48.9905 349.624 48.7675 349.44 48.4635C349.255 48.1596 349.165 47.7789 349.171 47.3215V41.0914ZM356.101 45.5232V49.205H353.749V40.4777H356.016V43.9039H356.084C356.232 43.4863 356.478 43.161 356.821 42.928C357.165 42.6922 357.578 42.5743 358.061 42.5743C358.525 42.5743 358.926 42.6794 359.267 42.8897C359.611 43.0999 359.877 43.3897 360.064 43.759C360.255 44.1283 360.348 44.5516 360.346 45.0289V49.205H357.993V45.5232C357.996 45.1993 357.915 44.9451 357.75 44.7604C357.588 44.5758 357.357 44.4834 357.056 44.4834C356.865 44.4834 356.698 44.526 356.553 44.6113C356.411 44.6937 356.3 44.813 356.221 44.9692C356.144 45.1226 356.104 45.3073 356.101 45.5232ZM364.643 49.3243C363.944 49.3243 363.342 49.1908 362.836 48.9238C362.333 48.6539 361.946 48.2675 361.673 47.7647C361.403 47.259 361.268 46.6539 361.268 45.9493C361.268 45.2732 361.404 44.6823 361.677 44.1766C361.95 43.6709 362.335 43.2775 362.832 42.9962C363.329 42.715 363.916 42.5743 364.592 42.5743C365.086 42.5743 365.534 42.651 365.934 42.8044C366.335 42.9579 366.677 43.1809 366.961 43.4735C367.245 43.7633 367.464 44.1155 367.618 44.5303C367.771 44.9451 367.848 45.4124 367.848 45.9323V46.4777H362.001V45.1823H365.683C365.68 44.9948 365.632 44.83 365.538 44.688C365.447 44.5431 365.324 44.4309 365.167 44.3513C365.014 44.2689 364.839 44.2277 364.643 44.2277C364.453 44.2277 364.278 44.2689 364.119 44.3513C363.96 44.4309 363.832 44.5417 363.735 44.6837C363.642 44.8258 363.592 44.9919 363.586 45.1823V46.58C363.586 46.7902 363.63 46.9777 363.718 47.1425C363.806 47.3073 363.933 47.4366 364.098 47.5303C364.262 47.6241 364.461 47.6709 364.694 47.6709C364.856 47.6709 365.004 47.6482 365.137 47.6027C365.274 47.5573 365.39 47.4919 365.487 47.4067C365.583 47.3187 365.654 47.2135 365.7 47.0914H367.848C367.774 47.5459 367.599 47.9408 367.324 48.276C367.048 48.6084 366.683 48.8669 366.228 49.0516C365.777 49.2334 365.248 49.3243 364.643 49.3243ZM375.119 42.6596V44.3641H370.738V42.6596H375.119ZM371.573 49.205V42.4721C371.573 41.9323 371.67 41.4848 371.863 41.1297C372.056 40.7746 372.329 40.509 372.681 40.3329C373.033 40.1567 373.448 40.0687 373.925 40.0687C374.224 40.0687 374.513 40.0914 374.795 40.1368C375.079 40.1823 375.289 40.2221 375.425 40.2562L375.085 41.9437C374.999 41.9181 374.9 41.8982 374.786 41.884C374.673 41.8669 374.573 41.8584 374.488 41.8584C374.266 41.8584 374.117 41.9053 374.04 41.9991C373.964 42.0928 373.925 42.2164 373.925 42.3698V49.205H371.573ZM380.271 46.3414V42.6596H382.623V49.205H380.39V47.9607H380.322C380.18 48.3783 379.931 48.705 379.576 48.9408C379.221 49.1738 378.799 49.2902 378.31 49.2902C377.853 49.2902 377.452 49.1851 377.109 48.9749C376.768 48.7647 376.502 48.4749 376.312 48.1056C376.124 47.7363 376.029 47.313 376.026 46.8357V42.6596H378.379V46.3414C378.381 46.6652 378.464 46.9195 378.626 47.1042C378.79 47.2888 379.021 47.3812 379.316 47.3812C379.512 47.3812 379.681 47.34 379.823 47.2576C379.968 47.1723 380.079 47.053 380.156 46.8996C380.235 46.7434 380.273 46.5573 380.271 46.3414ZM387.723 42.6596V44.3641H383.41V42.6596H387.723ZM384.245 41.0914H386.598V47.0999C386.598 47.1908 386.613 47.2675 386.645 47.33C386.676 47.3897 386.724 47.4351 386.789 47.4664C386.855 47.4948 386.939 47.509 387.041 47.509C387.112 47.509 387.194 47.5005 387.288 47.4834C387.385 47.4664 387.456 47.4522 387.501 47.4408L387.842 49.0942C387.737 49.1255 387.586 49.1638 387.39 49.2093C387.197 49.2547 386.967 49.2846 386.7 49.2988C386.16 49.3272 385.707 49.2718 385.341 49.1326C384.974 48.9905 384.699 48.7675 384.514 48.4635C384.329 48.1596 384.24 47.7789 384.245 47.3215V41.0914ZM392.927 46.3414V42.6596H395.279V49.205H393.046V47.9607H392.978C392.836 48.3783 392.587 48.705 392.232 48.9408C391.877 49.1738 391.455 49.2902 390.967 49.2902C390.509 49.2902 390.109 49.1851 389.765 48.9749C389.424 48.7647 389.158 48.4749 388.968 48.1056C388.781 47.7363 388.685 47.313 388.683 46.8357V42.6596H391.035V46.3414C391.038 46.6652 391.12 46.9195 391.282 47.1042C391.447 47.2888 391.677 47.3812 391.972 47.3812C392.168 47.3812 392.337 47.34 392.479 47.2576C392.624 47.1723 392.735 47.053 392.812 46.8996C392.891 46.7434 392.93 46.5573 392.927 46.3414ZM396.475 49.205V42.6596H398.76V43.9039H398.828C398.947 43.4437 399.136 43.107 399.395 42.8939C399.656 42.6809 399.961 42.5743 400.311 42.5743C400.413 42.5743 400.514 42.5829 400.613 42.5999C400.716 42.6141 400.814 42.6354 400.907 42.6638V44.6709C400.791 44.6312 400.647 44.6013 400.477 44.5814C400.306 44.5616 400.16 44.5516 400.038 44.5516C399.808 44.5516 399.6 44.6042 399.416 44.7093C399.234 44.8116 399.091 44.9564 398.985 45.1439C398.88 45.3286 398.828 45.5459 398.828 45.7959V49.205H396.475ZM404.44 49.3243C403.741 49.3243 403.139 49.1908 402.633 48.9238C402.13 48.6539 401.743 48.2675 401.47 47.7647C401.2 47.259 401.065 46.6539 401.065 45.9493C401.065 45.2732 401.201 44.6823 401.474 44.1766C401.747 43.6709 402.132 43.2775 402.629 42.9962C403.126 42.715 403.713 42.5743 404.389 42.5743C404.883 42.5743 405.331 42.651 405.731 42.8044C406.132 42.9579 406.474 43.1809 406.758 43.4735C407.042 43.7633 407.261 44.1155 407.414 44.5303C407.568 44.9451 407.645 45.4124 407.645 45.9323V46.4777H401.798V45.1823H405.48C405.477 44.9948 405.429 44.83 405.335 44.688C405.244 44.5431 405.12 44.4309 404.964 44.3513C404.811 44.2689 404.636 44.2277 404.44 44.2277C404.25 44.2277 404.075 44.2689 403.916 44.3513C403.757 44.4309 403.629 44.5417 403.532 44.6837C403.439 44.8258 403.389 44.9919 403.383 45.1823V46.58C403.383 46.7902 403.427 46.9777 403.515 47.1425C403.603 47.3073 403.73 47.4366 403.895 47.5303C404.059 47.6241 404.258 47.6709 404.491 47.6709C404.653 47.6709 404.801 47.6482 404.934 47.6027C405.071 47.5573 405.187 47.4919 405.284 47.4067C405.38 47.3187 405.451 47.2135 405.497 47.0914H407.645C407.571 47.5459 407.396 47.9408 407.12 48.276C406.845 48.6084 406.48 48.8669 406.025 49.0516C405.574 49.2334 405.045 49.3243 404.44 49.3243Z" fill="black"/>
<path d="M73.5994 15.5455V19.3864H64.7358V15.5455H73.5994Z" fill="#D1D600"/>
<rect x="2" y="60.9749" width="127" height="113.682" rx="20" fill="#073567"/>
<rect x="142" y="60.9749" width="127" height="113.682" rx="20" fill="#073567"/>
<rect x="2" y="182.925" width="407" height="64.0753" rx="20" fill="#073567"/>
<rect x="282" y="60.9749" width="127" height="113.682" rx="20" fill="#073567"/>
<path d="M42.5938 112.847V109.347H56.5V112.847H51.6875V125.347H47.4063V112.847H42.5938ZM57.6973 112.847V109.347H71.6035V112.847H66.791V125.347H62.5098V112.847H57.6973ZM87.9863 117.347C87.9863 119.128 87.64 120.631 86.9473 121.855C86.2546 123.074 85.3197 123.998 84.1426 124.628C82.9655 125.253 81.653 125.566 80.2051 125.566C78.7467 125.566 77.429 125.251 76.252 124.621C75.0801 123.985 74.1478 123.058 73.4551 121.839C72.7676 120.615 72.4238 119.118 72.4238 117.347C72.4238 115.566 72.7676 114.066 73.4551 112.847C74.1478 111.623 75.0801 110.699 76.252 110.074C77.429 109.444 78.7467 109.128 80.2051 109.128C81.653 109.128 82.9655 109.444 84.1426 110.074C85.3197 110.699 86.2546 111.623 86.9473 112.847C87.64 114.066 87.9863 115.566 87.9863 117.347ZM83.5176 117.347C83.5176 116.389 83.39 115.582 83.1348 114.925C82.8848 114.264 82.5124 113.764 82.0176 113.425C81.528 113.082 80.9238 112.91 80.2051 112.91C79.4863 112.91 78.8796 113.082 78.3848 113.425C77.8952 113.764 77.5228 114.264 77.2676 114.925C77.0176 115.582 76.8926 116.389 76.8926 117.347C76.8926 118.306 77.0176 119.115 77.2676 119.777C77.5228 120.433 77.8952 120.933 78.3848 121.277C78.8796 121.615 79.4863 121.785 80.2051 121.785C80.9238 121.785 81.528 121.615 82.0176 121.277C82.5124 120.933 82.8848 120.433 83.1348 119.777C83.39 119.115 83.5176 118.306 83.5176 117.347Z" fill="#E9F1FA"/>
<path d="M140.594 209.994V206.494H154.5V209.994H149.688V222.494H145.406V209.994H140.594ZM160.207 222.712C158.926 222.712 157.822 222.468 156.895 221.978C155.973 221.483 155.262 220.775 154.762 219.853C154.267 218.926 154.02 217.817 154.02 216.525C154.02 215.285 154.27 214.202 154.77 213.275C155.27 212.348 155.975 211.627 156.887 211.111C157.798 210.595 158.874 210.337 160.113 210.337C161.02 210.337 161.84 210.478 162.574 210.759C163.309 211.041 163.936 211.449 164.457 211.986C164.978 212.517 165.379 213.163 165.66 213.923C165.941 214.684 166.082 215.541 166.082 216.494V217.494H155.363V215.119H162.113C162.108 214.775 162.02 214.473 161.848 214.212C161.681 213.947 161.454 213.741 161.168 213.595C160.887 213.444 160.566 213.369 160.207 213.369C159.858 213.369 159.538 213.444 159.246 213.595C158.954 213.741 158.72 213.944 158.543 214.205C158.371 214.465 158.28 214.77 158.27 215.119V217.681C158.27 218.067 158.35 218.41 158.512 218.712C158.673 219.015 158.905 219.252 159.207 219.423C159.509 219.595 159.874 219.681 160.301 219.681C160.598 219.681 160.868 219.64 161.113 219.556C161.363 219.473 161.577 219.353 161.754 219.197C161.931 219.035 162.061 218.843 162.145 218.619H166.082C165.947 219.452 165.626 220.176 165.121 220.791C164.616 221.4 163.947 221.874 163.113 222.212C162.285 222.546 161.316 222.712 160.207 222.712ZM173.623 222.712C172.321 222.712 171.206 222.455 170.279 221.939C169.352 221.418 168.641 220.694 168.146 219.767C167.652 218.835 167.404 217.754 167.404 216.525C167.404 215.296 167.652 214.218 168.146 213.291C168.641 212.358 169.352 211.634 170.279 211.119C171.206 210.598 172.321 210.337 173.623 210.337C174.8 210.337 175.818 210.551 176.678 210.978C177.542 211.4 178.212 211.999 178.686 212.775C179.16 213.546 179.399 214.452 179.404 215.494H175.404C175.347 214.864 175.165 214.384 174.857 214.056C174.555 213.723 174.165 213.556 173.686 213.556C173.311 213.556 172.982 213.666 172.701 213.884C172.42 214.098 172.201 214.423 172.045 214.861C171.889 215.293 171.811 215.837 171.811 216.494C171.811 217.15 171.889 217.697 172.045 218.134C172.201 218.567 172.42 218.892 172.701 219.111C172.982 219.324 173.311 219.431 173.686 219.431C174.003 219.431 174.285 219.358 174.529 219.212C174.774 219.061 174.972 218.843 175.123 218.556C175.279 218.265 175.373 217.91 175.404 217.494H179.404C179.389 218.551 179.146 219.473 178.678 220.259C178.209 221.041 177.545 221.645 176.686 222.072C175.831 222.499 174.811 222.712 173.623 222.712ZM185.496 215.744V222.494H181.184V206.494H185.34V212.775H185.465C185.736 212.009 186.186 211.413 186.816 210.986C187.447 210.554 188.204 210.337 189.09 210.337C189.939 210.337 190.676 210.53 191.301 210.916C191.931 211.301 192.418 211.832 192.762 212.509C193.111 213.186 193.283 213.962 193.277 214.837V222.494H188.965V215.744C188.97 215.15 188.822 214.684 188.52 214.345C188.223 214.007 187.798 213.837 187.246 213.837C186.897 213.837 186.59 213.916 186.324 214.072C186.064 214.223 185.861 214.442 185.715 214.728C185.574 215.009 185.501 215.348 185.496 215.744ZM214.664 212.494H210.258C210.227 212.129 210.143 211.798 210.008 211.502C209.878 211.205 209.695 210.949 209.461 210.736C209.232 210.517 208.953 210.35 208.625 210.236C208.297 210.116 207.924 210.056 207.508 210.056C206.779 210.056 206.161 210.233 205.656 210.587C205.156 210.942 204.776 211.449 204.516 212.111C204.26 212.772 204.133 213.567 204.133 214.494C204.133 215.473 204.263 216.293 204.523 216.955C204.789 217.611 205.172 218.106 205.672 218.439C206.172 218.767 206.773 218.931 207.477 218.931C207.878 218.931 208.237 218.882 208.555 218.783C208.872 218.679 209.148 218.53 209.383 218.337C209.617 218.145 209.807 217.913 209.953 217.642C210.104 217.366 210.206 217.056 210.258 216.712L214.664 216.744C214.612 217.421 214.422 218.111 214.094 218.814C213.766 219.512 213.299 220.158 212.695 220.752C212.096 221.34 211.354 221.814 210.469 222.173C209.583 222.533 208.555 222.712 207.383 222.712C205.914 222.712 204.596 222.397 203.43 221.767C202.268 221.137 201.349 220.21 200.672 218.986C200 217.762 199.664 216.265 199.664 214.494C199.664 212.712 200.008 211.212 200.695 209.994C201.383 208.77 202.31 207.845 203.477 207.22C204.643 206.59 205.945 206.275 207.383 206.275C208.393 206.275 209.323 206.413 210.172 206.689C211.021 206.965 211.766 207.369 212.406 207.9C213.047 208.426 213.563 209.074 213.953 209.845C214.344 210.616 214.581 211.499 214.664 212.494ZM222.447 222.712C221.166 222.712 220.062 222.468 219.135 221.978C218.213 221.483 217.502 220.775 217.002 219.853C216.507 218.926 216.26 217.817 216.26 216.525C216.26 215.285 216.51 214.202 217.01 213.275C217.51 212.348 218.215 211.627 219.127 211.111C220.038 210.595 221.114 210.337 222.354 210.337C223.26 210.337 224.08 210.478 224.814 210.759C225.549 211.041 226.176 211.449 226.697 211.986C227.218 212.517 227.619 213.163 227.9 213.923C228.182 214.684 228.322 215.541 228.322 216.494V217.494H217.604V215.119H224.354C224.348 214.775 224.26 214.473 224.088 214.212C223.921 213.947 223.695 213.741 223.408 213.595C223.127 213.444 222.807 213.369 222.447 213.369C222.098 213.369 221.778 213.444 221.486 213.595C221.195 213.741 220.96 213.944 220.783 214.205C220.611 214.465 220.52 214.77 220.51 215.119V217.681C220.51 218.067 220.59 218.41 220.752 218.712C220.913 219.015 221.145 219.252 221.447 219.423C221.749 219.595 222.114 219.681 222.541 219.681C222.838 219.681 223.109 219.64 223.354 219.556C223.604 219.473 223.817 219.353 223.994 219.197C224.171 219.035 224.301 218.843 224.385 218.619H228.322C228.187 219.452 227.867 220.176 227.361 220.791C226.856 221.4 226.187 221.874 225.354 222.212C224.525 222.546 223.557 222.712 222.447 222.712ZM234.395 215.744V222.494H230.082V210.494H234.176V212.775H234.301C234.561 212.015 235.02 211.418 235.676 210.986C236.337 210.554 237.108 210.337 237.988 210.337C238.837 210.337 239.574 210.533 240.199 210.923C240.829 211.309 241.316 211.84 241.66 212.517C242.009 213.194 242.181 213.968 242.176 214.837V222.494H237.863V215.744C237.868 215.15 237.717 214.684 237.41 214.345C237.108 214.007 236.686 213.837 236.145 213.837C235.79 213.837 235.48 213.916 235.215 214.072C234.954 214.223 234.754 214.442 234.613 214.728C234.473 215.009 234.4 215.348 234.395 215.744ZM251.461 210.494V213.619H243.555V210.494H251.461ZM245.086 207.619H249.398V218.634C249.398 218.801 249.427 218.942 249.484 219.056C249.542 219.166 249.63 219.249 249.75 219.306C249.87 219.358 250.023 219.384 250.211 219.384C250.341 219.384 250.492 219.369 250.664 219.337C250.841 219.306 250.971 219.28 251.055 219.259L251.68 222.291C251.487 222.348 251.211 222.418 250.852 222.502C250.497 222.585 250.076 222.64 249.586 222.666C248.596 222.718 247.766 222.616 247.094 222.361C246.422 222.1 245.917 221.692 245.578 221.134C245.24 220.577 245.076 219.879 245.086 219.041V207.619ZM258.842 222.712C257.561 222.712 256.456 222.468 255.529 221.978C254.607 221.483 253.896 220.775 253.396 219.853C252.902 218.926 252.654 217.817 252.654 216.525C252.654 215.285 252.904 214.202 253.404 213.275C253.904 212.348 254.61 211.627 255.521 211.111C256.433 210.595 257.508 210.337 258.748 210.337C259.654 210.337 260.475 210.478 261.209 210.759C261.943 211.041 262.571 211.449 263.092 211.986C263.613 212.517 264.014 213.163 264.295 213.923C264.576 214.684 264.717 215.541 264.717 216.494V217.494H253.998V215.119H260.748C260.743 214.775 260.654 214.473 260.482 214.212C260.316 213.947 260.089 213.741 259.803 213.595C259.521 213.444 259.201 213.369 258.842 213.369C258.493 213.369 258.173 213.444 257.881 213.595C257.589 213.741 257.355 213.944 257.178 214.205C257.006 214.465 256.915 214.77 256.904 215.119V217.681C256.904 218.067 256.985 218.41 257.146 218.712C257.308 219.015 257.54 219.252 257.842 219.423C258.144 219.595 258.508 219.681 258.936 219.681C259.232 219.681 259.503 219.64 259.748 219.556C259.998 219.473 260.212 219.353 260.389 219.197C260.566 219.035 260.696 218.843 260.779 218.619H264.717C264.581 219.452 264.261 220.176 263.756 220.791C263.251 221.4 262.581 221.874 261.748 222.212C260.92 222.546 259.951 222.712 258.842 222.712ZM266.477 222.494V210.494H270.664V212.775H270.789C271.008 211.931 271.354 211.314 271.828 210.923C272.307 210.533 272.867 210.337 273.508 210.337C273.695 210.337 273.88 210.353 274.062 210.384C274.25 210.41 274.43 210.449 274.602 210.502V214.181C274.388 214.108 274.125 214.054 273.813 214.017C273.5 213.981 273.232 213.962 273.008 213.962C272.586 213.962 272.206 214.059 271.867 214.252C271.534 214.439 271.271 214.705 271.078 215.048C270.885 215.387 270.789 215.785 270.789 216.244V222.494H266.477Z" fill="#E9F1FA"/>
<path d="M157.375 109.347V125.347H153.031V109.347H157.375ZM163.809 118.597V125.347H159.496V113.347H163.59V115.628H163.715C163.975 114.868 164.434 114.272 165.09 113.839C165.751 113.407 166.522 113.191 167.402 113.191C168.251 113.191 168.988 113.386 169.613 113.777C170.243 114.162 170.73 114.694 171.074 115.371C171.423 116.048 171.595 116.821 171.59 117.691V125.347H167.277V118.597C167.283 118.003 167.132 117.537 166.824 117.199C166.522 116.86 166.1 116.691 165.559 116.691C165.204 116.691 164.895 116.769 164.629 116.925C164.368 117.076 164.168 117.295 164.027 117.582C163.887 117.863 163.814 118.201 163.809 118.597ZM178.063 125.503C177.208 125.503 176.422 125.28 175.703 124.832C174.99 124.384 174.417 123.704 173.984 122.793C173.557 121.881 173.344 120.733 173.344 119.347C173.344 117.899 173.568 116.722 174.016 115.816C174.469 114.91 175.052 114.246 175.766 113.824C176.484 113.402 177.24 113.191 178.031 113.191C178.625 113.191 179.146 113.295 179.594 113.503C180.042 113.707 180.417 113.98 180.719 114.324C181.021 114.662 181.25 115.035 181.406 115.441H181.469V109.347H185.781V125.347H181.5V123.378H181.406C181.24 123.785 181 124.149 180.688 124.472C180.38 124.79 180.005 125.043 179.562 125.23C179.125 125.412 178.625 125.503 178.063 125.503ZM179.656 122.191C180.052 122.191 180.391 122.076 180.672 121.847C180.958 121.613 181.177 121.285 181.328 120.863C181.484 120.436 181.562 119.931 181.562 119.347C181.562 118.753 181.484 118.246 181.328 117.824C181.177 117.397 180.958 117.071 180.672 116.847C180.391 116.618 180.052 116.503 179.656 116.503C179.26 116.503 178.922 116.618 178.641 116.847C178.365 117.071 178.151 117.397 178 117.824C177.854 118.246 177.781 118.753 177.781 119.347C177.781 119.941 177.854 120.451 178 120.878C178.151 121.3 178.365 121.626 178.641 121.855C178.922 122.079 179.26 122.191 179.656 122.191ZM195.68 120.097V113.347H199.992V125.347H195.898V123.066H195.773C195.513 123.832 195.057 124.431 194.406 124.863C193.755 125.29 192.982 125.503 192.086 125.503C191.247 125.503 190.513 125.311 189.883 124.925C189.258 124.54 188.771 124.009 188.422 123.332C188.078 122.655 187.904 121.878 187.898 121.003V113.347H192.211V120.097C192.216 120.691 192.367 121.157 192.664 121.496C192.966 121.834 193.388 122.003 193.93 122.003C194.289 122.003 194.599 121.928 194.859 121.777C195.125 121.621 195.328 121.402 195.469 121.121C195.615 120.834 195.685 120.493 195.68 120.097ZM213.154 117.253H209.186C209.165 117.009 209.079 116.798 208.928 116.621C208.777 116.444 208.581 116.308 208.342 116.214C208.107 116.115 207.847 116.066 207.561 116.066C207.191 116.066 206.873 116.134 206.607 116.269C206.342 116.405 206.212 116.597 206.217 116.847C206.212 117.024 206.287 117.188 206.443 117.339C206.605 117.49 206.915 117.608 207.373 117.691L209.811 118.128C211.04 118.352 211.954 118.73 212.553 119.261C213.157 119.787 213.462 120.493 213.467 121.378C213.462 122.233 213.206 122.975 212.701 123.605C212.201 124.23 211.516 124.714 210.646 125.058C209.782 125.397 208.795 125.566 207.686 125.566C205.852 125.566 204.417 125.191 203.381 124.441C202.35 123.691 201.774 122.701 201.654 121.472H205.936C205.993 121.852 206.18 122.147 206.498 122.355C206.821 122.558 207.227 122.66 207.717 122.66C208.113 122.66 208.438 122.592 208.693 122.457C208.954 122.321 209.087 122.128 209.092 121.878C209.087 121.649 208.972 121.467 208.748 121.332C208.529 121.196 208.186 121.087 207.717 121.003L205.592 120.628C204.368 120.415 203.451 120.009 202.842 119.41C202.232 118.811 201.93 118.04 201.936 117.097C201.93 116.264 202.149 115.558 202.592 114.98C203.04 114.397 203.678 113.954 204.506 113.652C205.339 113.345 206.326 113.191 207.467 113.191C209.201 113.191 210.568 113.55 211.568 114.269C212.574 114.988 213.102 115.983 213.154 117.253ZM222.275 113.347V116.472H214.369V113.347H222.275ZM215.9 110.472H220.213V121.488C220.213 121.655 220.242 121.795 220.299 121.91C220.356 122.019 220.445 122.102 220.564 122.16C220.684 122.212 220.838 122.238 221.025 122.238C221.156 122.238 221.307 122.222 221.479 122.191C221.656 122.16 221.786 122.134 221.869 122.113L222.494 125.144C222.301 125.201 222.025 125.272 221.666 125.355C221.312 125.438 220.89 125.493 220.4 125.519C219.411 125.571 218.58 125.47 217.908 125.214C217.236 124.954 216.731 124.545 216.393 123.988C216.054 123.431 215.89 122.733 215.9 121.894V110.472ZM224.035 125.347V113.347H228.223V115.628H228.348C228.566 114.785 228.913 114.168 229.387 113.777C229.866 113.386 230.426 113.191 231.066 113.191C231.254 113.191 231.439 113.207 231.621 113.238C231.809 113.264 231.988 113.303 232.16 113.355V117.035C231.947 116.962 231.684 116.907 231.371 116.871C231.059 116.834 230.79 116.816 230.566 116.816C230.145 116.816 229.764 116.912 229.426 117.105C229.092 117.293 228.829 117.558 228.637 117.902C228.444 118.24 228.348 118.639 228.348 119.097V125.347H224.035ZM233.574 125.347V113.347H237.887V125.347H233.574ZM235.73 112.097C235.147 112.097 234.647 111.905 234.23 111.519C233.814 111.134 233.605 110.67 233.605 110.128C233.605 109.587 233.814 109.123 234.23 108.738C234.647 108.352 235.147 108.16 235.73 108.16C236.319 108.16 236.819 108.352 237.23 108.738C237.647 109.123 237.855 109.587 237.855 110.128C237.855 110.67 237.647 111.134 237.23 111.519C236.819 111.905 236.319 112.097 235.73 112.097ZM243.428 125.535C242.662 125.535 241.985 125.41 241.396 125.16C240.813 124.905 240.355 124.519 240.021 124.003C239.688 123.488 239.521 122.832 239.521 122.035C239.521 121.378 239.633 120.819 239.857 120.355C240.081 119.886 240.394 119.503 240.795 119.207C241.196 118.91 241.662 118.683 242.193 118.527C242.73 118.371 243.308 118.269 243.928 118.222C244.6 118.17 245.139 118.108 245.545 118.035C245.956 117.957 246.253 117.85 246.436 117.714C246.618 117.574 246.709 117.389 246.709 117.16V117.128C246.709 116.816 246.589 116.576 246.35 116.41C246.11 116.243 245.803 116.16 245.428 116.16C245.016 116.16 244.68 116.251 244.42 116.433C244.165 116.61 244.011 116.884 243.959 117.253H239.99C240.042 116.524 240.274 115.852 240.686 115.238C241.102 114.618 241.709 114.123 242.506 113.753C243.303 113.378 244.298 113.191 245.49 113.191C246.35 113.191 247.12 113.293 247.803 113.496C248.485 113.694 249.066 113.972 249.545 114.332C250.024 114.686 250.389 115.102 250.639 115.582C250.894 116.056 251.021 116.571 251.021 117.128V125.347H246.99V123.66H246.896C246.657 124.108 246.365 124.47 246.021 124.746C245.683 125.022 245.295 125.222 244.857 125.347C244.425 125.472 243.949 125.535 243.428 125.535ZM244.834 122.816C245.162 122.816 245.469 122.748 245.756 122.613C246.048 122.477 246.285 122.282 246.467 122.027C246.649 121.772 246.74 121.462 246.74 121.097V120.097C246.626 120.144 246.503 120.188 246.373 120.23C246.248 120.272 246.113 120.311 245.967 120.347C245.826 120.384 245.675 120.418 245.514 120.449C245.357 120.48 245.193 120.509 245.021 120.535C244.688 120.587 244.415 120.673 244.201 120.793C243.993 120.907 243.837 121.05 243.732 121.222C243.633 121.389 243.584 121.576 243.584 121.785C243.584 122.118 243.701 122.373 243.936 122.55C244.17 122.727 244.469 122.816 244.834 122.816ZM257.395 109.347V125.347H253.082V109.347H257.395Z" fill="#E9F1FA"/>
<path d="M297.375 109.347V125.347H293.031V109.347H297.375ZM303.809 118.597V125.347H299.496V113.347H303.59V115.628H303.715C303.975 114.868 304.434 114.272 305.09 113.839C305.751 113.407 306.522 113.191 307.402 113.191C308.251 113.191 308.988 113.386 309.613 113.777C310.243 114.162 310.73 114.694 311.074 115.371C311.423 116.048 311.595 116.821 311.59 117.691V125.347H307.277V118.597C307.283 118.003 307.132 117.537 306.824 117.199C306.522 116.86 306.1 116.691 305.559 116.691C305.204 116.691 304.895 116.769 304.629 116.925C304.368 117.076 304.168 117.295 304.027 117.582C303.887 117.863 303.814 118.201 303.809 118.597ZM319.5 125.566C318.198 125.566 317.083 125.308 316.156 124.793C315.229 124.272 314.518 123.548 314.023 122.621C313.529 121.688 313.281 120.608 313.281 119.378C313.281 118.149 313.529 117.071 314.023 116.144C314.518 115.212 315.229 114.488 316.156 113.972C317.083 113.451 318.198 113.191 319.5 113.191C320.677 113.191 321.695 113.405 322.555 113.832C323.419 114.253 324.089 114.852 324.562 115.628C325.036 116.399 325.276 117.306 325.281 118.347H321.281C321.224 117.717 321.042 117.238 320.734 116.91C320.432 116.576 320.042 116.41 319.562 116.41C319.188 116.41 318.859 116.519 318.578 116.738C318.297 116.951 318.078 117.277 317.922 117.714C317.766 118.147 317.688 118.691 317.688 119.347C317.688 120.003 317.766 120.55 317.922 120.988C318.078 121.42 318.297 121.746 318.578 121.964C318.859 122.178 319.188 122.285 319.562 122.285C319.88 122.285 320.161 122.212 320.406 122.066C320.651 121.915 320.849 121.696 321 121.41C321.156 121.118 321.25 120.764 321.281 120.347H325.281C325.266 121.405 325.023 122.326 324.555 123.113C324.086 123.894 323.422 124.498 322.563 124.925C321.708 125.352 320.687 125.566 319.5 125.566ZM334.842 120.097V113.347H339.154V125.347H335.061V123.066H334.936C334.675 123.832 334.219 124.431 333.568 124.863C332.917 125.29 332.144 125.503 331.248 125.503C330.41 125.503 329.675 125.311 329.045 124.925C328.42 124.54 327.933 124.009 327.584 123.332C327.24 122.655 327.066 121.878 327.061 121.003V113.347H331.373V120.097C331.378 120.691 331.529 121.157 331.826 121.496C332.128 121.834 332.55 122.003 333.092 122.003C333.451 122.003 333.761 121.928 334.021 121.777C334.287 121.621 334.49 121.402 334.631 121.121C334.777 120.834 334.847 120.493 334.842 120.097ZM341.285 125.347V109.347H345.598V115.441H345.66C345.816 115.035 346.046 114.662 346.348 114.324C346.65 113.98 347.025 113.707 347.473 113.503C347.921 113.295 348.441 113.191 349.035 113.191C349.827 113.191 350.579 113.402 351.293 113.824C352.012 114.246 352.595 114.91 353.043 115.816C353.496 116.722 353.723 117.899 353.723 119.347C353.723 120.733 353.507 121.881 353.074 122.793C352.647 123.704 352.074 124.384 351.355 124.832C350.642 125.28 349.858 125.503 349.004 125.503C348.441 125.503 347.939 125.412 347.496 125.23C347.059 125.043 346.684 124.79 346.371 124.472C346.064 124.149 345.827 123.785 345.66 123.378H345.566V125.347H341.285ZM345.504 119.347C345.504 119.931 345.579 120.436 345.73 120.863C345.887 121.285 346.105 121.613 346.387 121.847C346.673 122.076 347.014 122.191 347.41 122.191C347.806 122.191 348.142 122.079 348.418 121.855C348.699 121.626 348.913 121.3 349.059 120.878C349.21 120.451 349.285 119.941 349.285 119.347C349.285 118.753 349.21 118.246 349.059 117.824C348.913 117.397 348.699 117.071 348.418 116.847C348.142 116.618 347.806 116.503 347.41 116.503C347.014 116.503 346.673 116.618 346.387 116.847C346.105 117.071 345.887 117.397 345.73 117.824C345.579 118.246 345.504 118.753 345.504 119.347ZM358.871 125.535C358.105 125.535 357.428 125.41 356.84 125.16C356.257 124.905 355.798 124.519 355.465 124.003C355.132 123.488 354.965 122.832 354.965 122.035C354.965 121.378 355.077 120.819 355.301 120.355C355.525 119.886 355.837 119.503 356.238 119.207C356.639 118.91 357.105 118.683 357.637 118.527C358.173 118.371 358.751 118.269 359.371 118.222C360.043 118.17 360.582 118.108 360.988 118.035C361.4 117.957 361.697 117.85 361.879 117.714C362.061 117.574 362.152 117.389 362.152 117.16V117.128C362.152 116.816 362.033 116.576 361.793 116.41C361.553 116.243 361.246 116.16 360.871 116.16C360.46 116.16 360.124 116.251 359.863 116.433C359.608 116.61 359.454 116.884 359.402 117.253H355.434C355.486 116.524 355.717 115.852 356.129 115.238C356.546 114.618 357.152 114.123 357.949 113.753C358.746 113.378 359.741 113.191 360.934 113.191C361.793 113.191 362.564 113.293 363.246 113.496C363.928 113.694 364.509 113.972 364.988 114.332C365.467 114.686 365.832 115.102 366.082 115.582C366.337 116.056 366.465 116.571 366.465 117.128V125.347H362.434V123.66H362.34C362.1 124.108 361.809 124.47 361.465 124.746C361.126 125.022 360.738 125.222 360.301 125.347C359.868 125.472 359.392 125.535 358.871 125.535ZM360.277 122.816C360.605 122.816 360.913 122.748 361.199 122.613C361.491 122.477 361.728 122.282 361.91 122.027C362.092 121.772 362.184 121.462 362.184 121.097V120.097C362.069 120.144 361.947 120.188 361.816 120.23C361.691 120.272 361.556 120.311 361.41 120.347C361.27 120.384 361.118 120.418 360.957 120.449C360.801 120.48 360.637 120.509 360.465 120.535C360.132 120.587 359.858 120.673 359.645 120.793C359.436 120.907 359.28 121.05 359.176 121.222C359.077 121.389 359.027 121.576 359.027 121.785C359.027 122.118 359.145 122.373 359.379 122.55C359.613 122.727 359.913 122.816 360.277 122.816ZM375.682 113.347V116.472H367.775V113.347H375.682ZM369.307 110.472H373.619V121.488C373.619 121.655 373.648 121.795 373.705 121.91C373.762 122.019 373.851 122.102 373.971 122.16C374.09 122.212 374.244 122.238 374.432 122.238C374.562 122.238 374.713 122.222 374.885 122.191C375.062 122.16 375.192 122.134 375.275 122.113L375.9 125.144C375.708 125.201 375.432 125.272 375.072 125.355C374.718 125.438 374.296 125.493 373.807 125.519C372.817 125.571 371.986 125.47 371.314 125.214C370.643 124.954 370.137 124.545 369.799 123.988C369.46 123.431 369.296 122.733 369.307 121.894V110.472ZM383.094 125.566C381.792 125.566 380.677 125.308 379.75 124.793C378.823 124.272 378.112 123.548 377.617 122.621C377.122 121.688 376.875 120.608 376.875 119.378C376.875 118.149 377.122 117.071 377.617 116.144C378.112 115.212 378.823 114.488 379.75 113.972C380.677 113.451 381.792 113.191 383.094 113.191C384.396 113.191 385.51 113.451 386.438 113.972C387.365 114.488 388.076 115.212 388.57 116.144C389.065 117.071 389.313 118.149 389.313 119.378C389.313 120.608 389.065 121.688 388.57 122.621C388.076 123.548 387.365 124.272 386.438 124.793C385.51 125.308 384.396 125.566 383.094 125.566ZM383.125 122.378C383.49 122.378 383.805 122.256 384.07 122.011C384.336 121.766 384.542 121.418 384.688 120.964C384.833 120.511 384.906 119.972 384.906 119.347C384.906 118.717 384.833 118.178 384.688 117.73C384.542 117.277 384.336 116.928 384.07 116.683C383.805 116.438 383.49 116.316 383.125 116.316C382.74 116.316 382.409 116.438 382.133 116.683C381.857 116.928 381.646 117.277 381.5 117.73C381.354 118.178 381.281 118.717 381.281 119.347C381.281 119.972 381.354 120.511 381.5 120.964C381.646 121.418 381.857 121.766 382.133 122.011C382.409 122.256 382.74 122.378 383.125 122.378ZM391.063 125.347V113.347H395.25V115.628H395.375C395.594 114.785 395.94 114.168 396.414 113.777C396.893 113.386 397.453 113.191 398.094 113.191C398.281 113.191 398.466 113.207 398.648 113.238C398.836 113.264 399.016 113.303 399.188 113.355V117.035C398.974 116.962 398.711 116.907 398.398 116.871C398.086 116.834 397.818 116.816 397.594 116.816C397.172 116.816 396.792 116.912 396.453 117.105C396.12 117.293 395.857 117.558 395.664 117.902C395.471 118.24 395.375 118.639 395.375 119.097V125.347H391.063Z" fill="#E9F1FA"/>
</svg>
