<svg xmlns="http://www.w3.org/2000/svg" xmlns:xlink="http://www.w3.org/1999/xlink" id="Calque_1" x="0px" y="0px" viewBox="0 0 494 224.2" style="enable-background:new 0 0 494 224.2;" xml:space="preserve"><style type="text/css">	.st0{fill:#FFFFFF;}	.st1{fill:#FCC200;}	.st2{fill:#CC8F00;}</style><g>	<g>		<path class="st0" d="M123.7,158.5c-19.3,0-30.9,15.4-30.9,32.9c0,19.6,12.8,32.9,35.7,32.9c7.8,0,14.5-1.2,21.7-3.5l-2.9-11.5    c-5.9,1.6-12.7,2.5-18.7,2.5c-11.7,0-20.1-5.6-20.4-15.1h45v-4.8C153.3,172.1,142.1,158.5,123.7,158.5 M108.4,185.4    c1.2-9.6,7-14.6,15.3-14.6c8.9,0,13.6,5.5,14.5,14.6H108.4z"></path>		<path class="st0" d="M197.6,158.5c-9.4,0-17.6,5.2-21.7,11.2v-10h-15.5v63.5h15.9v-35.4c0-8.9,7.7-15.1,14.9-15.1    c8,0,11.5,4.7,11.5,12.5v38h15.9v-40.3C218.6,168.3,212,158.5,197.6,158.5"></path>		<path class="st0" d="M251.1,158.5c-7.4,0-15.5,0.8-22.3,2.2l1.3,11.7c6.9-0.9,12.9-1.4,19.6-1.4c11.7,0,15.3,3.4,15.3,10.4v5.3    h-19c-13,0-20.6,6.5-20.6,18.5c0,11.1,8.6,18.9,21.4,18.9c8.7,0,14.7-2.9,18.9-8.1v7h15.3v-41.4    C280.9,166.1,269.8,158.5,251.1,158.5 M265,199.6c0,8-5.4,13.3-13.8,13.3c-6.5,0-9.9-2.5-9.9-7.7c0-5.7,3.5-8,9.9-8H265V199.6z"></path>		<path class="st0" d="M323.2,171.3c3.8,0,8.2,0.4,12.7,1.4l2.6-11.5c-5.2-2-10.7-2.7-16.6-2.7c-21.1,0-35.1,14.4-35.1,32.9    c0,18.5,14,32.9,35.1,32.9c5.2,0,12.1-1.3,16.6-3l-2.6-11.6c-4.8,1.3-8.2,2-12.7,2c-13.8,0-20.5-8.3-20.5-20.2    C302.7,179.5,309.4,171.3,323.2,171.3"></path>		<path class="st0" d="M419.8,195c0,8.9-7.7,15-14.9,15c-8,0-11.3-4.7-11.3-12.5v-37.8h-2.1h-32v-17.9h-15.9v17.9v10.7v34.6    c0,14,8.5,19.3,20.1,19.3c3.1,0,6.9-0.5,9.1-1l-1.4-11.7c-1.4,0.3-3.5,0.5-4.6,0.5c-4.2,0-7.3-1.4-7.3-8.1v-33.5h18.2V200    c0,14.6,6.6,24.3,21,24.3c9.4,0,17.5-5.2,21.5-11.2v10.2h15.7v-63.5h-16.1V195z"></path>		<path class="st0" d="M473.3,185.4c-11.2-4.4-14.2-5.5-14.2-9.6c0-3.4,2.3-5,10.7-5c6.3,0,14.1,1.3,19.3,2.7l2.7-11.6    c-6.9-2.3-16.2-3.4-22.3-3.4c-16.6,0-25.7,5.9-25.7,17.7c0,10.7,5.6,14.1,22.6,21c9.6,3.9,12.1,5,12.1,8.7c0,3.5-2.9,6-11.2,6    c-6.5,0-14.6-1.8-22.3-4.6l-3.5,11.1c7.8,3.4,17.8,5.7,26,5.7c16.1,0,26.6-7.6,26.6-18.9C494,194.6,489.2,191.6,473.3,185.4"></path>	</g>	<polygon class="st1" points="175.7,113.1 140.8,78.2 62.6,0 62.6,113.1 0,113.1 62.6,175.7 125.1,113.1  "></polygon>	<polygon class="st2" points="62.6,175.7 62.6,113.1 55.6,113.1  "></polygon>	<polygon class="st2" points="150.4,87.7 125.1,113.1 132.9,113.1  "></polygon></g></svg>