<svg width="303" height="302" viewBox="0 0 303 302" fill="none" xmlns="http://www.w3.org/2000/svg">
<g clip-path="url(#clip0_29_166)">
<rect width="303" height="302" fill="white"/>
<path d="M26.6296 280.17H31.3749L32.4469 276.742H27.7016L26.6296 280.17ZM38.5696 280.17V283.354H34.0389L32.3856 288.619H28.7416L30.3949 283.354H25.6189L23.9656 288.619H20.3229L21.9762 283.354H18.9456V280.17H22.9562L24.0269 276.742H20.6296V273.556H25.0376L26.8442 267.771H30.4869L28.6816 273.556H33.4576L35.2629 267.771H38.9069L37.1002 273.556H40.2536V276.742H36.1202L35.0482 280.17H38.5696Z" fill="#C20831"/>
<path d="M56.5377 288.619H53.2924L47.323 276.006L46.4964 288.619H42.915L44.1084 267.802H47.567L54.915 284.21L62.2324 267.802H65.7217L66.9164 288.619H63.335L62.5084 276.006L56.5377 288.619Z" fill="#C20831"/>
<path d="M85.0071 276.527V279.893H74.8738V285.221H86.2924V288.619H71.2004V267.801H86.2924V271.2H74.8738V276.527H85.0071Z" fill="#C20831"/>
<path d="M103.803 276.527V279.893H93.6694V285.221H105.088V288.619H89.9961V267.801H105.088V271.2H93.6694V276.527H103.803Z" fill="#C20831"/>
<path d="M118.098 288.619H114.425V271.2H106.832V267.802H125.69V271.2H118.098V288.619Z" fill="#C20831"/>
<path d="M142.251 288.619H138.333L133.833 279.986L133.281 288.619H127.311L128.322 267.802H133.587L140.293 280.17L146.997 267.802H152.293L153.273 288.619H147.303L146.782 279.986L142.251 288.619Z" fill="#C20831"/>
<mask id="mask0_29_166" style="mask-type:luminance" maskUnits="userSpaceOnUse" x="-410" y="-246" width="1123" height="794">
<path d="M-410 -246H712.52V547.701H-410V-246Z" fill="white"/>
</mask>
<g mask="url(#mask0_29_166)">
<path d="M166.007 283.507C167.445 283.507 168.64 283.016 169.527 282.068C170.445 281.088 170.904 279.803 170.904 278.21C170.904 276.618 170.445 275.332 169.527 274.383C168.64 273.404 167.445 272.915 166.007 272.915C164.568 272.915 163.373 273.404 162.455 274.383C161.567 275.332 161.108 276.618 161.108 278.21C161.108 279.803 161.567 281.088 162.455 282.068C163.373 283.016 164.568 283.507 166.007 283.507ZM166.007 267.342C169.343 267.342 172.068 268.352 174.119 270.343C176.201 272.332 177.241 274.966 177.241 278.21C177.241 281.455 176.201 284.088 174.119 286.079C172.068 288.068 169.343 289.079 166.007 289.079C162.669 289.079 159.944 288.068 157.863 286.079C155.812 284.088 154.771 281.455 154.771 278.21C154.771 274.966 155.812 272.332 157.863 270.343C159.944 268.352 162.669 267.342 166.007 267.342Z" fill="#C20831"/>
<path d="M187.771 278.21C189.731 278.21 190.924 277.109 190.924 275.394C190.924 273.649 189.853 272.761 187.68 272.761H185.383V278.21H187.771ZM187.159 283.201H185.383V288.619H179.199V267.801C183.576 267.647 186.547 267.586 188.047 267.586C193.801 267.586 197.139 270.311 197.139 275.21C197.139 277.997 196.068 280.138 193.956 281.577L198.547 288.619H191.353L188.108 283.201H187.159Z" fill="#C20831"/>
<path d="M209.628 283.507C211.068 283.507 212.261 283.016 213.149 282.068C214.068 281.088 214.526 279.803 214.526 278.21C214.526 276.618 214.068 275.332 213.149 274.383C212.261 273.404 211.068 272.915 209.628 272.915C208.189 272.915 206.994 273.404 206.077 274.383C205.189 275.332 204.73 276.618 204.73 278.21C204.73 279.803 205.189 281.088 206.077 282.068C206.994 283.016 208.189 283.507 209.628 283.507ZM209.628 267.342C212.965 267.342 215.69 268.352 217.741 270.343C219.822 272.332 220.864 274.966 220.864 278.21C220.864 281.455 219.822 284.088 217.741 286.079C215.69 288.068 212.965 289.079 209.628 289.079C206.292 289.079 203.566 288.068 201.485 286.079C199.433 284.088 198.393 281.455 198.393 278.21C198.393 274.966 199.433 272.332 201.485 270.343C203.566 268.352 206.292 267.342 209.628 267.342Z" fill="#C20831"/>
<path d="M240.945 273.863C238.097 273.343 235.985 273.067 234.577 273.067C231.027 273.067 228.821 275.117 228.821 278.18C228.821 281.333 231.087 283.385 234.424 283.385C235.619 283.385 237.792 283.109 240.945 282.588L241.863 287.915C239.016 288.68 236.383 289.048 233.933 289.048C230.413 289.048 227.567 288.068 225.393 286.079C223.219 284.088 222.147 281.455 222.147 278.211C222.147 274.965 223.219 272.363 225.393 270.373C227.567 268.384 230.383 267.373 233.904 267.373C236.321 267.373 238.985 267.711 241.895 268.413L240.945 273.863Z" fill="#C20831"/>
<path d="M260.874 273.863C258.026 273.343 255.914 273.067 254.506 273.067C250.955 273.067 248.75 275.117 248.75 278.18C248.75 281.333 251.015 283.385 254.352 283.385C255.547 283.385 257.72 283.109 260.874 282.588L261.791 287.915C258.946 288.68 256.312 289.048 253.863 289.048C250.343 289.048 247.495 288.068 245.322 286.079C243.148 284.088 242.075 281.455 242.075 278.211C242.075 274.965 243.148 272.363 245.322 270.373C247.495 268.384 250.311 267.373 253.832 267.373C256.251 267.373 258.914 267.711 261.823 268.413L260.874 273.863Z" fill="#C20831"/>
<path d="M273.241 283.507C274.68 283.507 275.874 283.016 276.761 282.068C277.68 281.088 278.138 279.803 278.138 278.21C278.138 276.618 277.68 275.332 276.761 274.383C275.874 273.404 274.68 272.915 273.241 272.915C271.801 272.915 270.608 273.404 269.689 274.383C268.801 275.332 268.342 276.618 268.342 278.21C268.342 279.803 268.801 281.088 269.689 282.068C270.608 283.016 271.801 283.507 273.241 283.507ZM273.241 267.342C276.577 267.342 279.302 268.352 281.353 270.343C283.436 272.332 284.476 274.966 284.476 278.21C284.476 281.455 283.436 284.088 281.353 286.079C279.302 288.068 276.577 289.079 273.241 289.079C269.904 289.079 267.178 288.068 265.097 286.079C263.046 284.088 262.005 281.455 262.005 278.21C262.005 274.966 263.046 272.332 265.097 270.343C267.178 268.352 269.904 267.342 273.241 267.342Z" fill="#C20831"/>
<path d="M26.5899 251.486H31.3659L32.4432 248.036H27.6686L26.5899 251.486ZM38.6046 251.486V254.689H34.0446L32.3819 259.989H28.7152L30.3792 254.689H25.5739L23.9099 259.989H20.2446L21.9072 254.689H18.8579V251.486H22.8939L23.9712 248.036H20.5526V244.832H24.9886L26.8059 239.01H30.4712L28.6539 244.832H33.4592L35.2779 239.01H38.9432L37.1259 244.832H40.2992V248.036H36.1406L35.0619 251.486H38.6046Z" fill="#C20831"/>
<path d="M57.425 254.782C58.7183 253.395 59.3663 251.608 59.3663 249.42C59.3663 247.235 58.6877 245.51 57.333 244.184C56.0077 242.86 54.2517 242.182 52.1263 242.182C50.7703 242.182 49.5383 242.212 48.4597 242.306V256.723C50.309 256.815 51.7263 256.846 52.681 256.846C54.5597 256.846 56.1623 256.168 57.425 254.782ZM60.1357 241.69C62.1997 243.63 63.2477 246.218 63.2477 249.42C63.2477 252.656 62.2303 255.244 60.229 257.247C58.2263 259.25 55.7303 260.235 52.681 260.235C49.4463 260.235 46.8277 260.143 44.7637 259.988V239.039C47.8437 238.855 50.309 238.762 52.1263 238.762C55.4223 238.762 58.0717 239.748 60.1357 241.69Z" fill="#C20831"/>
<path d="M76.2147 249.915C78.772 249.915 80.62 248.281 80.62 245.941C80.62 243.445 78.8334 242.181 75.968 242.181C75.1054 242.181 73.72 242.213 71.84 242.244V249.915H76.2147ZM76.3067 253.18C75.968 253.211 75.476 253.211 74.7987 253.211H71.84V259.989H68.144V239.04C71.4094 238.917 73.9654 238.855 75.8147 238.855C80.9587 238.855 84.224 241.412 84.224 245.941C84.224 248.805 82.6534 251.085 79.9734 252.287L85.5494 259.989H81.0507L76.3067 253.18Z" fill="#C20831"/>
<path d="M103.569 247.82V251.209H93.373V256.569H104.864V259.989H89.6757V239.04H104.864V242.458H93.373V247.82H103.569Z" fill="#C20831"/>
<path d="M115.674 252.379H123.252L119.463 243.722L115.674 252.379ZM112.378 259.989H108.188L117.738 238.917H121.188L130.707 259.989H126.579L124.67 255.706H114.226L112.378 259.989Z" fill="#C20831"/>
<path d="M148.358 259.989H145.093L139.085 247.295L138.253 259.989H134.649L135.85 239.039H139.331L146.725 255.553L154.087 239.039H157.601L158.801 259.989H155.197L154.365 247.295L148.358 259.989Z" fill="#C20831"/>
<path d="M171.768 252.04H176.512L174.171 245.848L171.768 252.04ZM168.748 259.989H162.187L171.275 238.917H177.036L186.124 259.989H179.563L178.454 257.124H169.858L168.748 259.989Z" fill="#C20831"/>
<path d="M203.219 247.881V253.365H195.056V259.989H188.832V239.039H204.667V244.339H195.056V247.881H203.219Z" fill="#C20831"/>
<path d="M216.095 249.514C218.067 249.514 219.268 248.406 219.268 246.68C219.268 244.924 218.188 244.031 216.003 244.031H213.691V249.514H216.095ZM215.478 254.536H213.691V259.988H207.468V239.04C211.874 238.886 214.862 238.824 216.372 238.824C222.164 238.824 225.52 241.566 225.52 246.495C225.52 249.299 224.443 251.455 222.318 252.903L226.939 259.988H219.699L216.434 254.536H215.478Z" fill="#C20831"/>
<path d="M235.5 259.989H229.308V239.04H235.5V259.989Z" fill="#C20831"/>
<path d="M257.588 245.14C254.723 244.616 252.598 244.339 251.18 244.339C247.607 244.339 245.39 246.403 245.39 249.484C245.39 252.657 247.668 254.721 251.026 254.721C252.227 254.721 254.415 254.444 257.588 253.92L258.512 259.279C255.647 260.051 252.999 260.42 250.534 260.42C246.991 260.42 244.126 259.435 241.939 257.432C239.751 255.429 238.672 252.779 238.672 249.513C238.672 246.249 239.751 243.629 241.939 241.628C244.126 239.625 246.959 238.609 250.503 238.609C252.936 238.609 255.616 238.947 258.543 239.656L257.588 245.14Z" fill="#C20831"/>
<path d="M270.033 252.04H274.777L272.435 245.848L270.033 252.04ZM267.013 259.989H260.451L269.539 238.917H275.299L284.389 259.989H277.826L276.718 257.124H268.122L267.013 259.989Z" fill="#C20831"/>
<path d="M299.424 298.847H3.90934V228.784H299.424V298.847ZM0.485352 -0.269357V226.117V228.784V299.605V302.272H3.15202H300.181H302.848V299.605V228.784V226.117V-0.269357H0.485352Z" fill="#C20831"/>
<path d="M42.9883 161.684C43.5296 161.522 45.043 162.364 45.2056 162.304C45.367 162.251 47.6376 160.395 47.6376 160.395C47.6376 160.395 45.9616 159.719 45.8003 159.656C45.151 159.656 44.3936 161.071 44.0696 161.179C43.747 161.295 42.6643 160.675 41.583 160.223C41.3123 160.503 39.9603 162.027 39.0416 162.531C39.4203 162.648 41.1496 163.267 41.1496 163.267C41.1496 163.267 42.4483 161.855 42.9883 161.684Z" fill="white"/>
<path d="M235.056 108.03H230.327C227.132 111.067 224.535 111.643 217.621 111.643H202.255C200.521 113.219 198.849 114.247 196.753 114.882V115.067H217.621C227.183 115.067 229.983 113.76 235.056 108.03Z" fill="white"/>
<path d="M125.443 128.296H100.319C93.3987 128.296 90.8013 127.72 87.6133 124.692H82.8813C87.9467 130.424 90.7533 131.725 100.319 131.725H128.912C127.677 130.666 126.519 129.522 125.443 128.296Z" fill="white"/>
<path d="M150.21 112.647L130.604 98.4056H141.294L142.403 94.9816H123.694C127.56 84.4816 137.175 76.7376 148.702 75.5963L149.847 72.0736C135.9 72.8323 124.227 82.2203 120.071 94.9816H120.064L147.295 114.76L150.21 112.647Z" fill="white"/>
<path d="M142.546 53.3704C145.512 53.3704 147.34 50.9064 147.34 48.621C147.34 46.301 146.277 45.357 145.174 45.357C144.202 45.357 143.42 46.1477 143.42 47.0997C143.42 48.1317 144.358 48.8304 145.05 48.8304C144.158 50.2037 142.8 50.669 141.042 50.537C141.241 50.2397 141.365 49.9237 141.365 49.5277C141.365 48.541 140.546 47.7984 139.63 47.7984C138.761 47.7984 137.897 48.6077 137.897 49.645C137.897 51.605 139.73 53.3704 142.546 53.3704Z" fill="white"/>
<path d="M132.039 68.5825H132.236C132.096 67.0905 131.583 66.2079 130.642 65.8479C127.262 64.5772 125.432 61.7825 125.432 58.6652C125.432 55.1052 127.714 52.8932 130.566 52.8932C134.616 52.8932 136.083 57.6199 140.722 57.6199C142.383 57.6199 143.746 56.6372 143.746 55.8079V55.3119H142.879C137.067 55.3119 136.166 49.4705 130.566 49.4705C125.786 49.4705 122.01 53.2492 122.01 58.6652C122.01 64.1265 126.226 68.5825 132.039 68.5825Z" fill="white"/>
<path d="M106.577 115.067V114.882C104.478 114.247 102.806 113.219 101.068 111.643H85.7155C78.7955 111.643 76.1942 111.067 73.0048 108.03H68.2742C73.3435 113.762 76.1502 115.067 85.7155 115.067H106.577Z" fill="white"/>
<path d="M136.652 130.972L133.655 133.144C138.85 136.504 145.034 138.47 151.67 138.47C158.956 138.47 165.696 136.111 171.18 132.118L171.198 132.127L160.794 100.116H157.194L164.687 123.159L156.04 116.883L153.126 118.996L168.247 129.98C163.498 133.171 157.802 135.046 151.67 135.046C146.196 135.046 141.068 133.558 136.652 130.972Z" fill="white"/>
<path d="M148.288 46.8656L151.674 44.4043L155.054 46.8696L153.765 42.887L157.153 40.4256H152.968L151.674 36.4483L150.377 40.4256H146.19L149.58 42.887L148.288 46.8656Z" fill="white"/>
<path d="M78.3984 106.732H99.2637V106.552C97.165 105.922 95.493 104.893 93.7584 103.312H78.3984C70.5904 103.312 68.2917 102.582 64.417 98.405H117.4C117.629 97.2437 117.917 96.0984 118.269 94.981H56.9424L59.3157 97.797C65.5264 105.156 67.8517 106.732 78.3984 106.732Z" fill="white"/>
<path d="M93.0189 123.393H113.88V123.213C111.782 122.58 110.114 121.552 108.375 119.969H93.0189C86.0989 119.969 83.5042 119.393 80.3095 116.36H75.5815C80.6469 122.088 83.4535 123.393 93.0189 123.393Z" fill="white"/>
<path d="M148.504 98.4054H172.727L164.084 104.687L165.197 108.111L180.336 97.1134C181.069 99.6988 181.468 102.425 181.468 105.245C181.468 114.075 177.609 122.015 171.491 127.472L172.636 130.999C180.105 124.9 184.895 115.627 184.895 105.245C184.895 101.663 184.317 98.2161 183.265 94.9814H149.611L148.504 98.4054Z" fill="white"/>
<path d="M132.142 132.108L132.137 132.127L159.365 112.347L158.253 108.923L138.653 123.16L141.95 113.003L139.04 110.881L133.265 128.657C126.332 123.196 121.865 114.739 121.865 105.245C121.865 103.075 122.102 100.951 122.552 98.9054L119.549 96.728C118.828 99.4507 118.44 102.303 118.44 105.245C118.44 116.275 123.846 126.06 132.142 132.108Z" fill="white"/>
<path d="M149.52 58.0121C150.463 59.0974 151.021 59.9401 151.629 61.2921C151.643 61.3134 151.656 61.3334 151.675 61.3601C151.688 61.3334 151.701 61.3134 151.719 61.2921C152.323 59.9401 152.881 59.0974 153.829 58.0121C153.467 57.0668 152.391 55.3481 151.675 54.6454C150.952 55.3481 149.873 57.0668 149.52 58.0121Z" fill="white"/>
<path d="M145.611 63.7798C146.647 63.6211 147.699 63.5131 148.755 63.4411C148.115 60.3958 146.387 58.3145 144.681 58.3145C143.781 58.3145 143.113 58.9318 142.763 59.7371C143.753 59.9185 144.935 61.1345 145.611 63.7798Z" fill="white"/>
<path d="M151.674 47.3098C150.16 47.3098 148.93 48.5351 148.93 50.0498C148.93 51.5645 150.16 52.7898 151.674 52.7898C153.188 52.7898 154.413 51.5645 154.413 50.0498C154.413 48.5351 153.188 47.3098 151.674 47.3098Z" fill="white"/>
<path d="M134.778 67.0637C135.653 66.6584 136.545 66.2811 137.455 65.9317C137.013 64.5931 136.175 63.0984 134.607 63.0984C133.822 63.0984 133.209 63.7211 132.949 64.4504C133.669 64.7117 134.274 65.3384 134.778 67.0637Z" fill="white"/>
<path d="M139.409 60.6032C138.631 60.6032 137.877 61.1526 137.571 61.9646C138.315 62.0726 139.305 62.6752 140.041 65.0459C140.995 64.7566 141.964 64.5099 142.952 64.2872C142.249 61.9366 140.977 60.6032 139.409 60.6032Z" fill="white"/>
<path d="M165.772 61.9648C165.469 61.1528 164.713 60.6034 163.939 60.6034C162.361 60.6034 161.096 61.9368 160.393 64.2874C161.38 64.5128 162.348 64.7608 163.307 65.0554C164.037 62.6754 165.029 62.0728 165.772 61.9648Z" fill="white"/>
<path d="M159.599 55.3123V55.8083C159.599 56.6377 160.964 57.619 162.626 57.619C167.255 57.619 168.726 52.8937 172.78 52.8937C175.632 52.8937 177.904 55.1057 177.904 58.6657C177.904 61.783 176.082 64.5763 172.702 65.8483C171.76 66.2083 171.247 67.091 171.103 68.583H171.3C177.115 68.583 181.335 64.127 181.335 58.6657C181.335 53.2497 177.556 49.4697 172.78 49.4697C167.175 49.4697 166.283 55.3123 160.464 55.3123H159.599Z" fill="white"/>
<path d="M170.391 64.4503C170.129 63.721 169.516 63.0983 168.74 63.0983C167.164 63.0983 166.332 64.6036 165.885 65.9383C166.795 66.2836 167.688 66.6583 168.563 67.0676C169.067 65.3383 169.669 64.7116 170.391 64.4503Z" fill="white"/>
<path d="M156 48.6215C156 50.9055 157.835 53.3708 160.795 53.3708C163.619 53.3708 165.453 51.6055 165.453 49.6442C165.453 48.6082 164.589 47.7975 163.713 47.7975C162.799 47.7975 161.975 48.5415 161.975 49.5268C161.975 49.9242 162.105 50.2402 162.305 50.5362C160.547 50.6682 159.192 50.2028 158.293 48.8308C158.992 48.8308 159.928 48.1308 159.928 47.0988C159.928 46.1482 159.144 45.3562 158.172 45.3562C157.073 45.3562 156 46.3002 156 48.6215Z" fill="white"/>
<path d="M158.659 58.3148C156.956 58.3148 155.235 60.3962 154.589 63.4402C155.648 63.5175 156.697 63.6202 157.731 63.7842C158.407 61.1335 159.591 59.9175 160.583 59.7375C160.227 58.9308 159.565 58.3148 158.659 58.3148Z" fill="white"/>
<path d="M227.753 116.36H223.022C219.827 119.393 217.231 119.969 210.311 119.969H194.955C193.222 121.552 191.551 122.58 189.45 123.213V123.393H210.311C219.879 123.393 222.686 122.086 227.753 116.36Z" fill="white"/>
<path d="M220.449 124.691H215.718C212.529 127.719 209.932 128.295 203.012 128.295H177.888C176.81 129.523 175.653 130.666 174.424 131.725H203.012C212.573 131.725 215.386 130.423 220.449 124.691Z" fill="white"/>
<path d="M151.669 72.0199L141.265 104.033L144.177 106.145L151.665 83.1039L154.973 93.2639H158.569L152.797 75.4893C164.483 75.9266 174.465 83.1093 178.944 93.2639H182.649C177.831 80.8519 165.768 72.0199 151.669 72.0199Z" fill="white"/>
<path d="M170.229 73.7493V70.2346C165.145 67.3173 158.363 65.1719 151.669 65.1719C144.971 65.1719 138.184 67.3173 133.103 70.2346V73.7493C138.555 70.5333 144.897 68.5959 151.669 68.5959C158.443 68.5959 164.787 70.5333 170.229 73.7493Z" fill="white"/>
<path d="M238.914 98.4055C235.043 102.582 232.741 103.312 224.934 103.312H209.573C207.837 104.894 206.165 105.922 204.067 106.551V106.732H224.934C235.478 106.732 237.806 105.155 244.014 97.7962L246.389 94.9815H185.071C185.414 96.0988 185.701 97.2428 185.931 98.4055H238.914Z" fill="white"/>
<path d="M61.5514 184.058V181.865H56.9554V192.017H61.3981V188.114C61.9474 186.487 65.3714 186.978 65.3714 186.978V182.099C62.1728 181.861 61.5514 184.058 61.5514 184.058Z" fill="white"/>
<path d="M156.711 184.058V181.865H152.111V192.017H156.559V188.114C157.1 186.487 160.534 186.978 160.534 186.978V182.099C157.334 181.861 156.711 184.058 156.711 184.058Z" fill="white"/>
<path d="M227.376 188.651C225.571 188.569 225.488 186.526 225.488 186.526C225.727 183.986 227.531 184.149 227.531 184.149C229.338 184.233 229.256 186.61 229.256 186.61C229.096 188.819 227.376 188.651 227.376 188.651ZM227.45 181.374C227.45 181.374 221.334 181.21 220.938 186.442C220.938 186.442 220.863 192.33 227.531 192.003C227.531 192.003 233.339 192.498 233.575 186.69C233.575 186.69 233.811 181.374 227.45 181.374Z" fill="white"/>
<path d="M73.9166 188.651C72.1113 188.569 72.0286 186.526 72.0286 186.526C72.2659 183.986 74.0713 184.149 74.0713 184.149C75.8779 184.233 75.7966 186.61 75.7966 186.61C75.6366 188.819 73.9166 188.651 73.9166 188.651ZM73.9899 181.374C73.9899 181.374 67.8726 181.21 67.4779 186.442C67.4779 186.442 67.4019 192.33 74.0713 192.003C74.0713 192.003 79.8793 192.498 80.1153 186.69C80.1153 186.69 80.3513 181.374 73.9899 181.374Z" fill="white"/>
<path d="M88.1361 186.897L86.4148 181.86H80.9628L85.1761 190.628H81.8988V193.556H87.1268C89.5414 193.961 91.0188 190.061 91.0188 190.061L94.6814 181.86H89.6894L88.1361 186.897Z" fill="white"/>
<path d="M104.508 186.978C104.351 189.169 102.556 189.092 102.556 189.092C100.608 189.092 100.608 186.897 100.608 186.897C100.688 184.212 102.792 184.537 102.792 184.537C104.744 184.537 104.508 186.978 104.508 186.978ZM104.351 183.158C104.351 183.158 102.634 181.453 100.688 181.536C100.688 181.536 96.2457 181.292 96.0924 186.654C96.0924 186.654 95.5431 191.524 100.291 192.016C100.291 192.016 103.032 192.253 104.351 190.141V192.016H108.87V181.86L104.347 181.865L104.351 183.158Z" fill="white"/>
<path d="M136.94 186.978C136.783 189.169 134.987 189.092 134.987 189.092C133.039 189.092 133.039 186.897 133.039 186.897C133.121 184.212 135.22 184.537 135.22 184.537C137.175 184.537 136.94 186.978 136.94 186.978ZM136.783 183.158C136.783 183.158 135.067 181.453 133.121 181.536C133.121 181.536 128.676 181.292 128.52 186.654C128.52 186.654 127.973 191.524 132.723 192.016C132.723 192.016 135.453 192.253 136.783 190.141V192.016H141.299V181.86L136.779 181.865L136.783 183.158Z" fill="white"/>
<path d="M214.818 184.058V181.865H210.222V192.017H214.664V188.114C215.204 186.487 218.638 186.978 218.638 186.978V182.099C215.44 181.861 214.818 184.058 214.818 184.058Z" fill="white"/>
<path d="M202.809 186.978C202.653 189.169 200.863 189.092 200.863 189.092C198.913 189.092 198.913 186.897 198.913 186.897C198.994 184.212 201.094 184.537 201.094 184.537C203.049 184.537 202.809 186.978 202.809 186.978ZM202.653 183.158C202.653 183.158 200.941 181.453 198.994 181.536C198.994 181.536 194.546 181.292 194.393 186.654C194.393 186.654 193.846 191.524 198.598 192.016C198.598 192.016 201.327 192.253 202.653 190.141V192.016H207.175V181.86L202.653 181.865V183.158Z" fill="white"/>
<path d="M111.755 192.016H116.431V180.075H111.755V192.016Z" fill="white"/>
<path d="M144.268 192.016H148.944V181.865H144.268V192.016Z" fill="white"/>
<path d="M144.268 181.373H148.944V180.031H144.268V181.373Z" fill="white"/>
<path d="M188.392 181.698C186.287 181.21 184.413 183.725 184.413 183.725C183.247 181.453 180.984 181.698 180.984 181.698C178.025 181.698 177.005 184.13 177.005 184.13V181.86H172.483V192.016H176.932V186.654C177.168 185.185 178.335 185.346 178.335 185.346C179.66 185.109 179.42 186.897 179.42 186.897V192.016H184.179V186.488C184.341 185.266 185.504 185.266 185.504 185.266C186.593 185.109 186.829 186.654 186.829 186.654V192.016H191.659L191.668 184.453C191.041 181.536 188.392 181.698 188.392 181.698Z" fill="white"/>
<path d="M235.711 186.978C235.711 186.978 235.711 191.773 241.479 192.016C241.479 192.016 245.223 192.016 246.39 190.304V187.95C246.39 187.95 245.223 188.682 242.959 188.682C242.959 188.682 240.311 188.842 240.311 186.564C240.311 186.564 240.463 184.617 242.339 184.704C242.339 184.704 244.287 184.293 246.39 185.266V182.185C246.39 182.185 244.678 181.453 241.014 181.373C241.014 181.373 235.868 181.292 235.711 186.978Z" fill="white"/>
<path d="M70.7792 167.379C71.0486 168.785 71.6446 169.352 73.1579 169.236C74.6726 169.124 77.4299 166.477 76.0779 161.238C76.0779 161.238 74.8352 163.377 74.8352 163.829C74.8352 164.279 75.1592 164.902 74.7792 165.062C74.4019 165.235 71.4272 166.026 71.6979 163.206C68.7246 164.391 60.9939 167.829 54.0712 167.829C49.9352 167.829 47.8539 168.334 46.1419 166.514C45.3299 165.378 43.2046 163.719 41.7992 166.757C40.3379 168.829 40.2859 170.757 39.3646 170.586C38.3926 170.408 37.9592 168.389 37.6899 165.973C36.6619 169.408 37.5099 173.857 38.7179 173.8C39.8939 173.8 40.6232 171.641 41.2392 170.321C41.8446 169.009 42.0952 168.434 42.9886 168.389C46.3392 168.565 42.8259 172.052 53.6392 171.542C58.6672 171.038 65.1566 170.029 69.5339 166.928C70.3459 166.25 70.5632 166.079 70.7792 167.379Z" fill="white"/>
<path d="M265.98 157.232C265.444 158.191 264.255 160.395 263.659 160.728C263.659 162.364 263.926 172.787 263.55 173.515C264.464 171.824 266.2 169.74 266.087 168.162C265.98 166.591 266.25 157.971 265.98 157.232Z" fill="white"/>
<path d="M252.949 160.675L251.656 159.486L248.943 161.404L250.517 162.87L252.949 160.675Z" fill="white"/>
<path d="M230.462 169.857C232.182 168.901 237.973 166.757 239.861 167.829C239.812 169.857 232.944 170.136 230.462 169.857ZM219.097 166.928C218.557 166.82 218.232 165.856 218.232 164.784C219.584 164.451 220.774 165.801 220.616 166.757C220.449 167.1 219.64 167.036 219.097 166.928ZM258.194 163.147C258.254 162.251 258.036 162.08 258.354 161.575C258.681 161.071 259.712 159.769 259.712 159.769C258.464 159.097 257.928 158.984 258.464 157.069C258.464 157.069 256.136 158.927 256.302 160.223C256.469 161.521 256.68 161.628 256.68 162.193L256.625 164.336C256.625 164.336 256.625 165.125 255.541 165.125L247.217 165.235C247.217 165.235 245.925 167.716 245.597 167.829C245.597 167.829 250.301 168.724 250.517 168.901C247.705 169.573 242.298 170.083 240.67 169.857C243.161 167.883 243.705 165.856 242.242 164.841C240.784 163.829 239.437 163.377 232.618 166.644C232.512 164.279 232.565 161.913 232.674 161.628C232.777 161.351 233.701 160.957 233.481 159.829C233.264 158.701 232.241 157.688 232.512 156.844C231.377 158.813 230.506 160.503 230.616 161.237C230.722 161.967 231.268 162.251 231.318 163.04L231.426 167.209C230.673 167.659 229.046 168.564 228.721 168.784C226.936 169.235 224.668 167.716 223.969 166.703C223.208 164.621 221.698 161.801 220.129 161.684C219.261 161.628 217.854 164.224 217.316 165.235C216.778 166.251 215.746 167.716 215.966 168.388C216.18 169.068 218.666 170.307 221.854 170.196C220.509 171.715 212.772 173.633 211.368 173.74C215.909 174.705 219.428 174.427 220.449 174.137C221.478 173.857 223.102 171.605 223.102 171.605C225.857 172.388 227.7 173.348 232.512 173.515C237.324 173.687 243.384 173.463 245.969 173.124C248.566 172.787 254.572 171.939 255.761 171.825C256.954 171.715 259.654 171.376 260.037 171.605L262.686 168.441C262.686 168.441 257.548 167.433 257.108 166.983C258.254 165.46 258.145 164.052 258.194 163.147Z" fill="white"/>
<path d="M207.447 167.702C209.356 167.613 209.924 168.592 209.965 169.308C208.263 170.696 203.391 170.956 202.625 170.909C203.431 169.813 205.545 167.784 207.447 167.702ZM200.716 171.376C198.525 171.038 196.579 171.298 195.849 171.122C199.741 172.894 201.689 173.833 205.58 173.489C209.473 173.15 214.095 168.505 213.692 166.221C213.289 163.942 209.965 163.516 203.228 168.505C203.228 168.505 203.675 166.094 203.431 162.25C204.404 161.701 204.689 160.773 204.527 160.773C204.364 160.665 203.837 160.224 203.472 160.138C203.311 159.72 203.431 158.278 203.593 157.938C202.377 158.152 201.689 159.972 201.527 161.404C201.364 162.841 201.932 162.926 202.012 163.602L202.499 169.35C201.769 169.937 200.876 170.872 200.716 171.376Z" fill="white"/>
<path d="M191.306 168.334C191.306 168.334 191.266 158.064 191.062 157.6C190.866 158.024 189.035 161.238 189.035 161.238C189.197 163.979 189.567 171.591 188.794 173.366C190.497 171.083 191.306 169.182 191.306 168.334Z" fill="white"/>
<path d="M183.296 168.614C184.918 168.362 185.712 170.32 185.101 170.743C183.034 171.163 183.18 169.334 183.296 168.614ZM181.538 170.83C181.898 172.811 182.386 173.847 183.722 173.914C184.574 173.956 185.868 171.636 186.241 170.234C186.602 168.842 187.629 166.046 185.914 165.423C184.858 165.034 184.252 165.974 183.602 165.631C183.317 165.334 183.36 164.364 183.36 164.364L183.477 162.287C184.169 161.448 184.454 160.944 184.373 160.264C184.292 159.588 183.157 159.33 183.157 159.08C183.157 158.827 182.873 157.771 183.08 157.308C182.673 157.771 180.845 160.814 180.845 161.534C180.845 162.251 181.781 162.463 181.781 163.052C181.781 163.052 181.944 166.307 181.864 166.856C180.52 167.868 175.004 170.619 172.208 170.154C170.95 169.983 170.828 168.207 170.788 167.152L170.95 158.104C170.95 158.104 169.856 160.139 169.409 160.395L169.249 166.014C169.206 166.819 169.249 167.911 167.504 168.591C165.76 169.26 162.678 170.619 158.778 168.591L150.146 162.55C150.146 162.55 149.824 162.08 150.35 161.998C150.35 161.998 159.961 161.106 160.686 161.071C161.421 161.026 161.682 161.327 161.506 162.08C161.333 162.756 159.388 164.194 158.622 164.622C161.173 163.856 163.894 161.998 163.652 159.206C163.545 157.988 162.152 158.191 160.73 158.191C160.73 158.191 147.552 157.515 147.552 162.034C147.349 164.451 147.958 164.451 148.89 165.252L151.608 167.702C150.998 169.394 149.296 169.008 148.281 168.252C147.268 167.486 147.186 166.054 147.349 165.504C140.816 168.288 138.185 169.054 134.048 168.964C129.908 168.883 127.557 168.804 126.018 166.514C125.204 165.378 122.685 165.034 121.386 167.152C119.928 169.22 118.873 170.02 118.189 169.9C117.216 169.731 117.784 166.307 118.026 165.802C118.269 165.292 118.066 164.784 117.576 165.676C115.998 168.288 115.472 173.74 118.392 173.74C119.568 173.74 120.496 171.642 121.106 170.32C121.716 169.008 121.956 168.756 122.852 168.711C125.002 168.671 123.134 172.811 133.238 172.695C138.789 172.62 145.844 169.6 146.413 169.22C147.06 171.083 148.404 172.983 149.657 172.858C150.918 172.727 152.824 172.136 153.144 169.684L153.594 169.56C155.416 171.123 158.257 173.659 162.393 173.699C166.529 173.74 168.801 170.196 169.085 169.308C169.653 171.299 170.425 173.532 172.896 173.574C175.37 173.614 180.56 171.678 181.538 170.83Z" fill="white"/>
<path d="M122.852 161.152C122.365 161.152 120.901 160.305 120.901 160.305L118.233 162.424L120.014 163.349C120.014 163.349 121.716 161.913 122.445 161.998C123.176 162.08 124.23 163.008 124.23 163.008C124.23 163.008 126.582 160.981 126.906 160.896C126.338 160.138 125.366 159.72 125.366 159.72C125.366 159.72 123.338 161.152 122.852 161.152Z" fill="white"/>
<path d="M147.296 172.727L145.997 171.542C145.997 171.542 143.889 172.668 143.402 172.614C142.916 172.56 141.728 171.604 141.728 171.604C141.348 171.938 139.293 173.124 138.86 173.236L140.589 174.304C140.589 174.304 142.59 173.124 143.024 173.294C143.457 173.463 144.538 174.191 144.538 174.191L147.296 172.727Z" fill="white"/>
<path d="M111.984 168.671C111.984 168.671 111.132 158.575 110.928 158.104C110.727 158.531 108.898 161.742 108.898 161.742C109.47 165.126 110.402 172.388 109.627 174.166C111.331 171.884 111.984 169.518 111.984 168.671Z" fill="white"/>
<path d="M90.3515 166.251L89.1089 164.728C89.6489 164.675 92.7355 164.728 93.1649 165.008L90.3515 166.251ZM103.82 168.776C105.437 168.519 105.984 170.416 105.328 171.039C103.546 171.376 103.698 169.488 103.82 168.776ZM102.301 170.363C102.67 172.344 102.481 173.66 104.198 173.913C105.328 174.083 105.78 172.344 106.14 170.956C106.51 169.56 107.844 166.487 106.13 165.871C105.077 165.492 104.465 166.413 103.82 166.08C103.536 165.787 103.573 164.812 103.573 164.812L103.636 163.169C104.329 162.324 104.436 161.741 104.356 161.071C104.278 160.395 103.316 160.209 103.316 159.959C103.316 159.707 103.033 158.647 103.233 158.187C102.829 158.647 101.002 161.688 101.002 162.409C101.002 163.124 102.034 163.124 102.034 163.72C102.034 163.72 102.117 166.771 102.034 167.32C100.698 168.333 95.6502 170.416 93.8115 168.333C94.7329 167.487 96.3035 166.928 96.7862 166.873L97.4942 163.377C95.7102 162.927 88.8382 161.801 85.5929 162.477L84.1395 165.46C84.1395 165.46 85.5395 165.631 85.9755 165.801C86.4049 165.973 86.9475 166.533 87.1075 166.873C84.1395 166.928 79.8089 167.996 77.9715 169.181C76.1315 170.363 72.3475 173.633 71.7542 173.124C71.1582 172.613 71.1582 172.953 71.9689 170.029C70.9955 170.812 69.7155 173.833 71.1022 174.427C73.4835 175.436 78.0235 170.872 80.7809 170.647C83.3235 169.573 87.9729 169.684 88.4595 169.101C90.4875 170.956 91.9195 171.767 93.8929 172.136C98.7502 173.037 101.332 169.937 102.301 170.363Z" fill="white"/>
<path d="M91.4336 161.238L93.8123 159.602L92.7363 158.531L89.8149 160.166L91.4336 161.238Z" fill="white"/>
<path d="M68.129 170.416C67.6983 170.362 65.9676 171.825 65.6436 171.825C65.265 171.714 63.9116 170.812 63.533 170.872C63.157 170.924 60.7223 173.01 60.7223 173.01L62.993 174.02C62.993 174.02 65.101 172.56 65.3716 172.505C65.6436 172.446 66.8863 173.462 67.157 173.514C67.429 173.573 69.969 171.605 69.969 171.605C69.969 171.605 68.5623 170.478 68.129 170.416Z" fill="white"/>
<path d="M81.1068 172.894L79.9174 171.884L77.7548 173.011L78.8348 174.363L81.1068 172.894Z" fill="white"/>
</g>
</g>
<defs>
<clipPath id="clip0_29_166">
<rect width="303" height="302" fill="white"/>
</clipPath>
</defs>
</svg>
