<svg width="88" height="88" viewBox="0 0 88 88" fill="none" xmlns="http://www.w3.org/2000/svg">
<path d="M64.1813 27.5037H27.5V64.1813H64.1777L64.1813 27.5037Z" fill="#1C2C41"/>
<path d="M78.8517 20.1667V12.8333H71.5183V5.5H64.1813V12.8333H56.848V5.5H49.511V12.8333H42.1777V5.5H34.837V12.8333H27.5037V5.5H20.1667V12.8333H12.8333V20.1667H5.5V27.5037H12.8333V34.837H5.5V42.174H12.8333V49.5073H5.5V56.8443H12.8333V64.1777H5.5V71.5147H12.8333V78.848H20.1667V86.185H27.5037V78.8517H34.837V86.185H42.174V78.8517H49.5073V86.185H56.8443V78.8517H64.1777V86.185H71.5147V78.8517H78.848V71.5183H86.185V64.1813H78.8517V56.848H86.185V49.511H78.8517V42.1777H86.185V34.837H78.8517V27.5037H86.185V20.1667H78.8517ZM71.5183 71.5147H20.1667V20.1703H71.511L71.5183 71.5147Z" fill="#1C2C41"/>
</svg>
